/* XPM */
static char *b11691502014[] = {
/* columns rows colors chars-per-pixel */
"64 64 229 2 ",
"   c #000001",
".  c #0B0301",
"X  c #0C0904",
"o  c #01030A",
"O  c #0B030A",
"+  c #03090C",
"@  c #0C0B0B",
"#  c #020A05",
"$  c #130401",
"%  c #1B0400",
"&  c #130B04",
"*  c #1D0C01",
"=  c #120D0A",
"-  c #1A0D0A",
";  c #11070A",
":  c #12120E",
">  c #1C130C",
",  c #1F1104",
"<  c #010415",
"1  c #040C13",
"2  c #0B0C14",
"3  c #00051A",
"4  c #040D1B",
"5  c #090D19",
"6  c #140D17",
"7  c #04121C",
"8  c #0A1217",
"9  c #151413",
"0  c #1B1511",
"q  c #1E1B16",
"w  c #230A00",
"e  c #2B0C00",
"r  c #250400",
"t  c #231001",
"y  c #2E1B03",
"u  c #22150D",
"i  c #251A0E",
"p  c #2C1C0C",
"a  c #2A1402",
"s  c #341B08",
"d  c #251513",
"f  c #231C12",
"g  c #2C1C14",
"h  c #341509",
"j  c #3A250D",
"k  c #362108",
"l  c #2C241C",
"z  c #2A2318",
"x  c #3A2413",
"c  c #3C2913",
"v  c #33251B",
"b  c #3C261B",
"n  c #342A1D",
"m  c #3B2C1C",
"M  c #352415",
"N  c #3E3414",
"B  c #3D3419",
"V  c #000723",
"C  c #010B23",
"Z  c #000D2B",
"A  c #090E21",
"S  c #061023",
"D  c #0B1223",
"F  c #02132D",
"G  c #09182A",
"H  c #14162C",
"J  c #161B28",
"K  c #000D38",
"L  c #031433",
"P  c #0B1731",
"I  c #111E32",
"U  c #1D1F38",
"Y  c #251821",
"T  c #1C222C",
"R  c #172237",
"E  c #0F2228",
"W  c #2B2822",
"Q  c #342C24",
"!  c #3D2E22",
"~  c #352725",
"^  c #2D322A",
"/  c #3C3127",
"(  c #3B342B",
")  c #38362A",
"_  c #262938",
"`  c #302930",
"'  c #3E3538",
"]  c #441D05",
"[  c #442C0D",
"{  c #4B2D0D",
"}  c #472307",
"|  c #45320E",
" . c #4A300D",
".. c #452E15",
"X. c #4B2D14",
"o. c #442E1A",
"O. c #4A2E1A",
"+. c #442519",
"@. c #522D16",
"#. c #453213",
"$. c #4C3216",
"%. c #45311B",
"&. c #4C321A",
"*. c #533217",
"=. c #502B0E",
"-. c #452F21",
";. c #4C2C22",
":. c #443223",
">. c #4A3523",
",. c #43352C",
"<. c #45392B",
"1. c #4C3C2C",
"2. c #4B3929",
"3. c #513E2E",
"4. c #4A3D32",
"5. c #443936",
"6. c #503E32",
"7. c #502924",
"8. c #504027",
"9. c #57432E",
"0. c #4D4136",
"q. c #4C4339",
"w. c #544334",
"e. c #5A4634",
"r. c #5E4935",
"t. c #534739",
"y. c #564A3C",
"u. c #5C4B3C",
"i. c #5A4738",
"p. c #64492C",
"a. c #624C34",
"s. c #624D3C",
"d. c #6B4C37",
"f. c #63513E",
"g. c #6B563B",
"h. c #7E563D",
"j. c #0C1D46",
"k. c #0C254D",
"l. c #173148",
"z. c #0D2456",
"x. c #142A56",
"c. c #1A2D4C",
"v. c #2A3757",
"b. c #2C2D43",
"n. c #022E66",
"m. c #152B65",
"M. c #11396B",
"N. c #042A73",
"B. c #0D3B75",
"V. c #2A3D65",
"C. c #33425F",
"Z. c #1A437A",
"A. c #26486A",
"S. c #334A6D",
"D. c #384767",
"F. c #2D4E7A",
"G. c #2B4B77",
"H. c #344B73",
"J. c #2F517F",
"K. c #3A5779",
"L. c #5C4D42",
"P. c #544B42",
"I. c #5D5143",
"U. c #624F42",
"Y. c #645243",
"T. c #6B5544",
"R. c #6C5946",
"E. c #66594C",
"W. c #6C5A4A",
"Q. c #65544A",
"!. c #785C45",
"~. c #6D5F52",
"^. c #755D54",
"/. c #77624E",
"(. c #6D6156",
"). c #746454",
"_. c #7A6956",
"`. c #73655B",
"'. c #7D6B5C",
"]. c #776858",
"[. c #445379",
"{. c #505F7E",
"}. c #786C65",
"|. c #7F7365",
" X c #806F5F",
".X c #966D58",
"XX c #89735F",
"oX c #8C6343",
"OX c #847263",
"+X c #85796B",
"@X c #897668",
"#X c #937C6A",
"$X c #987C68",
"%X c #8C7E75",
"&X c #A07664",
"*X c #8E8171",
"=X c #948371",
"-X c #988579",
";X c #99836B",
":X c #A98874",
">X c #BD9478",
",X c #17378A",
"<X c #1C4984",
"1X c #224987",
"2X c #2D5488",
"3X c #385888",
"4X c #2D5090",
"5X c #385993",
"6X c #2C4792",
"7X c #3C6496",
"8X c #3C58A4",
"9X c #465E8A",
"0X c #475C86",
"qX c #4A5A91",
"wX c #44668E",
"eX c #456393",
"rX c #43699C",
"tX c #4B6798",
"yX c #536C9B",
"uX c #4F719E",
"iX c #455DA7",
"pX c #4A68A4",
"aX c #4A71A6",
"sX c #4D78AC",
"dX c #5778AB",
"fX c #BC9983",
"gX c #C39F8F",
"hX c #CEA590",
"jX c #DCB8A2",
/* pixels */
"                                  .                 #   o   o o   o o o     o o           .   .                                 ",
"                                  .   .         o o         o   o       o o     #   O         .                                 ",
"                                        .                 + o               o                                                   ",
"                                    .         .   X @ @       . @ # # O @     X               .                                 ",
"                                                  . . 0 @ = . X X     X = X . : X X # . #                                       ",
"                                o   o           @ X X Q Q ( > & Q l Q ) f X > ) & #     .                                       ",
"                                  o o   .     . . X . ( / ( $ . 0.t.t.<.i X > ) 0 X           #                                 ",
"                                    o         . & f ! }.|.%X^.(.0.<.<.0.u.(.|.}.) z X   #                                       ",
"                                o o       @   0 f 4.].}.}.OX@X@Xw.0.9.u.).+X+X|.P.>   :       #                                 ",
"                                            . = P.+X-X].6.1.w.e.Y.8.w.'.@XW.i.Y.t.z & 9     o +                                 ",
"                                          = X f |.`.L.t.U.T.U.s.Y.u.f.~.~.f.w.w.E.q.) q : o o                                   ",
"                                #         . . > %X~.L.s.U.r.e.s.w.I.f.9.i.W.T.3.y.P.0.: : + +                                   ",
"                                      .   = . > 5.P.Q.L.i.s.s.e.w.w.i.u.Y.s.e.6.9.y.q.> @   o o                                 ",
"                                      X . > . > `.E.L.i.U.T.a.>.u.t.w.Y.W.Y.s.s.f./ f > =   o                                   ",
"                                . .   . . . . 0 -X~.i.Y.T.s.f.).Y.I.U.u.s.T.W.W.I.g . = . o   o                                 ",
"                                        . z ( E.-X^.i.i.Y.f.u.u.I.I.L.Y.U.s.s.f. XW.w.Q O                                       ",
"                                      . $ i '.@X$X!./.r.Y.].t.I.Q.L.u.u.s.a.a.g.;X#X@Xm $ . .                                   ",
"                                o o     . , W./.T.XX;XW.W.*X`.y.L.L.U.T.d.a.p.p.;XXX/.g $ ; . .                                 ",
"                                o       . u Y.R.3.r.f.f.R.Q.I.I.L.L.u.u.r.a.p.e.a.R.W.v & . .                                   ",
"                                      . X > 4.w.<.8.<.t.Y.u.I.y.U.Q.s.u.s.s.e.>.>.3.q.l $ . . o                                 ",
"                                      . . X f f 4.t.q.'.|.f.u.u.#X=X=X=X#X#X^.6.w.! d = X                                       ",
"                                      #     . = W ( q.].).1.9.f.)._._.]. X XQ.,.b d . X o     o                                 ",
"                                          #   : . ) q.<./ 8.9.2.8.8.2.2.3.6.6.2.. = . @                                         ",
"                                  O   O   #   9 X q l / / c j c j N c c x b ~ ~ - d       # + #                                 ",
"                                          o @ = @ 0 z i p y y s y y s y y p g g u 0 O o   + o       .                           ",
"                                      .   . # X l Q <.:.:.%.&.&.#.#.#.%.%.:.;.-.g > $ = #     +   o                             ",
"                                        X X : > l n B :.o.%.&...#.#.#.....o.-.-.M i 0 0 =     o                                 ",
"                                      . & d l m M b o.....%.X.X.#.$.....O.O...o.x v m > 9   #                                   ",
"                                  o O . > v :.2.....&.$...$.&.&.$.&.&.$.$.$.$.&.c #.<.M f . @ O                                 ",
"                                o . . & f m >.&.X.$.$.{ [ ..X...X...X.X.{ | { { $.#.%.<.Q = . 9 @                               ",
"                                + # . & g %.&.} X.=.*.@.@.$.&.X.O.O.$.X. . . . . .[ ..2.n = . 9 @ O                             ",
"                                : X . . p >.>.X.] } { =.X.$.&...X.O.X.#. . . . .k [ c :.i > X X @ #                             ",
"                                $ & . , w x O.[ r } @.{ X.&...O.&...#.#.B N N N w s m ! v . : X :       #     #                 ",
"                                . . . > u v -.x r } *.X.X.X.o.%.O.&.%.#.B B B N e h +.-.g = # # : #                             ",
"                                9 9   : 9 Q / %.% j &.$.X.o.o.:.;.;.;.-.:.o.o.o.e e h +.g g . : : #                             ",
"                                1 1 o + 9 W Q n t j &.X.#.%.%.%.7.7.;.;.-.-.+.O.r h ] @.M $ . # # .                             ",
"                                + + o 9 l ) z y k #.#...$.#.#.$.O.7.;.O.O.O.O.X.} h.&X&X^.% f : # .                             ",
"                                8 @   X f v & w ..&.#.j $.$.#.X.X.@.X.#.O.X.{ =.] .XhXhX$X. 0 O                                 ",
"                                & . X $ y x % e X.&.X.[ $.$.[ { {  .| N #.| { =.} oX>XfXOX$ 9 @                                 ",
"                              . $ * t ..d.h.@.*...&.&.o.:.%.o.%.| N N N B B #. .{ p.oX/.i.$ o o                                 ",
"                                $ r r :XjXgX:X:X;.-.,.~ 5.' Q ( Q 5.^ ^ ^ ^ ) v N a $ . .   +                                   ",
"                              . - $ % $XgX.X+.% ,.` J D G H H T 8 J E E R P T W ( i . . #   # o                                 ",
"                                O $ g OXfX^.d O T l.k.x.k.k.k.k.x.j.z.m.m.z.j.R _ q .     # # o                                 ",
"                                . o ; - . d ; Y G S.3XrX5X5X7X2XqXiXiX8X8XiX5X9XR 8         o o                                 ",
"                                  o @ .   -   4 V F.aX<XZ.<X7X5Xm.6XiX6X,X6X5XeXL 7                                             ",
"                                1 o     . . . I S 3XdXB.n.Z.2X5Xj.V.3X1XN.N.4XeXL S o . #   o                                   ",
"                                      & . . . 2 3 S.uXM.B.G.z.c.Z R l.F.Z.n.2XwXF 7 .   . . O                                   ",
"                                o o   . . . X 5 V S.uXF.F.7XZ F J 7 4 G.7XM.3XwXF 7   . . . O .                                 ",
"                                      .     o 7 C H.dXdXwX3XF F 7 7 3 A.rXsXsX7XF 4     .   . .                                 ",
"                                  O O       o 7 Z V.yXqXwXK.F 7 1 7 V A.7XaXsXeXF C   . .                                       ",
"                                o     # # #   4 3 v.qX{.{.D.G 1 8 7 V G.rXsXaXtXL S         #                                   ",
"                                o           # # 2 H _ U _ T # 9 + 1 V S.uXuXuXeXL A     .   o                                   ",
"                                o o           o ; 6 6 b.' 5.& > # < < S.yXtXtX0XL A o       o                                   ",
"                                o         #   . O 6 J `.OX}.g $ X O < V.0XeX0X[.P A     .   o o                                 ",
"                                o o   #   #     . . . ~ 5.-.w . & 2 o b.v.V.v.v.A 5 o       o                                   ",
"                                  o           . . . . . O . $ . . @ o H P L P F 4 2     .   o                                   ",
"                                                    .   .   .   .   : 8 < < 3 D + o                                             ",
"                                                                      + o o o 2 o #     .                                       ",
"                                      O             o     o o   .       o     o #             .                                 ",
"                                .                       o o o o         o           #         #                                 ",
"                                  .                       o o o o o                 o       .                                   ",
"                                                        o   o o               .                                                 ",
"                                          o                   o o o   o o                   O                                   ",
"                                o   o o o           .     O     o   o o     O               o                                   "
};
