/* XPM */
static char *b21691502014[] = {
/* columns rows colors chars-per-pixel */
"64 64 231 2 ",
"   c #000000",
".  c #0A0401",
"X  c #020802",
"o  c #0C0A03",
"O  c #01020A",
"+  c #0C050B",
"@  c #04090C",
"#  c #0C0C0A",
"$  c #130601",
"%  c #120A03",
"&  c #1A0D01",
"*  c #120C0A",
"=  c #1B0E0D",
"-  c #190604",
";  c #1C1104",
":  c #15110D",
">  c #1B120C",
",  c #1C1A09",
"<  c #171B0A",
"1  c #010315",
"2  c #010C15",
"3  c #0B0B14",
"4  c #030B1B",
"5  c #070717",
"6  c #170E13",
"7  c #0C151D",
"8  c #0B1118",
"9  c #151312",
"0  c #1B1512",
"q  c #1D1914",
"w  c #14141B",
"e  c #171C1B",
"r  c #290A00",
"t  c #310E00",
"y  c #231304",
"u  c #2A1401",
"i  c #2D1A07",
"p  c #251A0D",
"a  c #2B1B0B",
"s  c #28170D",
"d  c #391A08",
"f  c #231B13",
"g  c #2C1D14",
"h  c #221E1A",
"j  c #261616",
"k  c #331E16",
"l  c #391F16",
"z  c #35230C",
"x  c #3A220C",
"c  c #332403",
"v  c #3F330F",
"b  c #2C2114",
"n  c #2B231C",
"m  c #282819",
"M  c #342414",
"N  c #3B2314",
"B  c #3D2B12",
"V  c #34251A",
"C  c #3B2B1C",
"Z  c #352A1A",
"A  c #3D3413",
"S  c #3B381F",
"D  c #2F2406",
"F  c #000825",
"G  c #0D1423",
"H  c #041820",
"J  c #02122C",
"K  c #09152A",
"L  c #191A26",
"P  c #021333",
"I  c #0E1A35",
"U  c #041D3B",
"Y  c #091736",
"T  c #161C36",
"R  c #000A39",
"E  c #281F26",
"W  c #311E22",
"Q  c #211C30",
"!  c #07243C",
"~  c #192138",
"^  c #232B2C",
"/  c #292627",
"(  c #332A23",
")  c #3C2B24",
"_  c #362F29",
"`  c #392427",
"'  c #2F332B",
"]  c #3C332C",
"[  c #3C3426",
"{  c #282932",
"}  c #342C32",
"|  c #353535",
" . c #462E0A",
".. c #4D2D0D",
"X. c #492A07",
"o. c #532C0F",
"O. c #43330E",
"+. c #49320E",
"@. c #402712",
"#. c #452D15",
"$. c #4B2D14",
"%. c #452E1C",
"&. c #4A2E1B",
"*. c #47271A",
"=. c #522B1C",
"-. c #532C15",
";. c #443313",
":. c #4A3115",
">. c #44321C",
",. c #4A321B",
"<. c #47391F",
"1. c #5D341E",
"2. c #452F22",
"3. c #4A2D24",
"4. c #472C29",
"5. c #502829",
"6. c #522822",
"7. c #443424",
"8. c #4A3B25",
"9. c #42352B",
"0. c #4B3B2C",
"q. c #46392C",
"w. c #523C2A",
"e. c #443A32",
"r. c #4B3E32",
"t. c #533D32",
"y. c #613E2A",
"u. c #48422D",
"i. c #55402F",
"p. c #4B4135",
"a. c #4D433A",
"s. c #544434",
"d. c #5A4534",
"f. c #5C4A34",
"g. c #51453B",
"h. c #54493D",
"j. c #5D4C3C",
"k. c #594639",
"l. c #614C36",
"z. c #624D3B",
"x. c #64513D",
"c. c #68543C",
"v. c #001B43",
"b. c #1D2346",
"n. c #022B5C",
"m. c #1D2C55",
"M. c #262C4A",
"N. c #202F5A",
"B. c #263557",
"V. c #303451",
"C. c #2E3547",
"Z. c #112F6B",
"A. c #0A3069",
"S. c #0B3575",
"D. c #163E76",
"F. c #082D74",
"G. c #253868",
"H. c #323E63",
"J. c #2D415D",
"K. c #1B4276",
"L. c #18467A",
"P. c #174169",
"I. c #2C417B",
"U. c #274A77",
"Y. c #364874",
"T. c #3F547F",
"R. c #31446E",
"E. c #4F4840",
"W. c #5C4E42",
"Q. c #534842",
"!. c #5E5144",
"~. c #5D544B",
"^. c #624E40",
"/. c #645243",
"(. c #695544",
"). c #6D5B45",
"_. c #64554A",
"`. c #6B5B4C",
"'. c #67594E",
"]. c #725C4B",
"[. c #745B44",
"{. c #6A5C53",
"}. c #715E50",
"|. c #76624A",
" X c #6C635A",
".X c #746252",
"XX c #78695C",
"oX c #44567D",
"OX c #675A61",
"+X c #756B65",
"@X c #86613E",
"#X c #856C57",
"$X c #85735A",
"%X c #8B745D",
"&X c #8E6D50",
"*X c #83766B",
"=X c #887666",
"-X c #927D6B",
";X c #8A7E73",
":X c #877A71",
">X c #94826B",
",X c #968475",
"<X c #998878",
"1X c #A3896C",
"2X c #AA8E7C",
"3X c #A18A78",
"4X c #B79579",
"5X c #C39C7D",
"6X c #2B5485",
"7X c #37578A",
"8X c #365596",
"9X c #304F88",
"0X c #3A6196",
"qX c #3858A3",
"wX c #3966A7",
"eX c #3E6DB5",
"rX c #425A8C",
"tX c #435C92",
"yX c #4C5F92",
"uX c #556589",
"iX c #45649B",
"pX c #486697",
"aX c #5B6A98",
"sX c #4266A3",
"dX c #4968A6",
"fX c #556DA6",
"gX c #4972B5",
"hX c #4D70B2",
"jX c #BFA489",
"kX c #C79D84",
"lX c #C7A78F",
/* pixels */
"                                  .           O   O O     . X     .   X O         X       X X                                   ",
"                                  . .       O   X     @     . X         X                                                       ",
"                                          O O                 .     X       X X   X         X X                                 ",
"                                  .       O X   O X       .         .     .   +     X                                           ",
"                                                      . X . . . .   . X X X                                                     ",
"                                                X 9 * . : _ n . .   : : 0 h X .         X     X                                 ",
"                                            X * + h / f n e.] f h f Z : q _ 0 o # X                                             ",
"                                    . .     . : % > _ h.) . > g.a.p.e.% % _ q . 0 o                                             ",
"                                  O X     . . 0 f r.XX+XXX{.W.e.p.p.9.h.~.+XE./ h # X   X                                       ",
"                                        . . % f r.{.*X;X:X*X{.s.q.k.{.+X;X;X Xa.q o                                             ",
"                                      . o # g E.jX+X_.r.0.k._./.k._.XXXXXX!.h.p.n : X         X                                 ",
"                                O     X . o e.:X'.Q.W.k.j.^.^.k.z.x.].(.j.0.Q.~.] n * .                                         ",
"                                O     o . . ] *XW.W.^.W.j.z.^.^.f.f.(.(.(.s.W.~.Q.' : . X                                       ",
"                                @     O . . n _.W./.(./.z.w.w.w.d.d.z.^.^.s.r.e.g.( % X O X                                     ",
"                                O       . . V {.^.j.z.z.z.z.z.^.i.l.d.z.^./.^.W._ f o X .                                       ",
"                                  O   . . . r.,X(.z.z.(.[.(.z.z.l.c.z.[.z.`././.a ; o . .     X                                 ",
"                                O + . - . q..X>Xc.f.f.l.c.c.^.^.j.x.x.x.l.c.|.$X|.7.$ . @     X                                 ",
"                                  O O = . j.=X$X).).c.|.|.i.z.W.!.h.j.x.f.l.#X2X=Xf.; . o     O                                 ",
"                                + O $ = . !.XXf.>X$Xx.$X>X|.|.s.!.x.j.j.f.l..X>X=Xf.& . X                                       ",
"                                O O O - . p./.8.j./.x.|.).i.j.j.!.j.k.f.d.s.k.j.`.9.$   .     X                                 ",
"                                  O   + * _ r.g.r.w.W.k.f._.x.)._.x.(.`.^.t.7.9.p.( o o X                                       ",
"                                  O     * 0 / a.9./.,X.Xs.x.`.<X,X-X,X<X:XW.a.W.n q . . .                                       ",
"                                O           = g e.g.`.j.u.j.f.).].[.]..X_.0.n q 9 #         .                                   ",
"                                O X   +   . = * e.e.q.u.i.u.8.8.&.w.w.0.r.g./ . 0 3                                             ",
"                              X   X X     # * $ V V V M M N M B @.@.N N V g : + 9 .                                             ",
"                                X       . o = > g g M M z z z c x d x x N V p % : .                                             ",
"                                X     X . o , b ) C %.%.%.>.>.%.$.&.&.>.7.2.Z n = %           O                                 ",
"                X                     . % ; p M >.>.>.>.,.,.,.,.&.,.&.%.>.%.C M f , % .                                         ",
"                                    o * p b B z ;.#.$.:.#.&.&.$.$.,.$.#.#.;.B N C M p o     O                                   ",
"                              .   # : f M S >.B ;.:.:.:.:.&.&.&.&.,.,.&.$.-.&.#.>.>.V * o X @                                   ",
"                            X O + + = n >.8.;.O.O. ...+.$.$.$.*.#.#.#. ...$.$...:.7.C , o # @ X                                 ",
"                              X 3 . $ b 7.>.A O.+.+.+.:.:.-.&.-.,.,.,.;...:.:.;.;.>.C , o # # X                                 ",
"                            . # O . = g V %.N u v v v O.O.+.+.$.>.,.;.A O.A c y z 8.a y o o <                                   ",
"                              # 9 . * s l l i - A A A A +.:.o.$.$.,.>.;.;.A D ; M 9.f y o o < X                                 ",
"                              O     - %.3.*.d r >.>.%.) 2.&.6.=.&.&.&.,.>.A i & C 4.k 6 + # w                                   ",
"                            . X : % - N x d t t %.%.2.7.4.5.5.6.6.=.$.$.,.#.i - W ` W 6 + # L                                   ",
"                              X o % . &.y.6.d r $.&.%.3.3.3.5.6.=.-.o.o.$.#.d i k k ` 6 + 3 L O                                 ",
"                                X * y #XkX5X&Xo...$.%.%.2.&.6.=.-.o.$.$.,.:.%.N d a ` j + O L O                                 ",
"                                  * . ].4X5X@XX. . . .;.;.O.+. .o.o.+.+.;.:.:.:.u u %.y - . q X                                 ",
"                                O w = }.4X4X@Xo. .O.;.A A A O.v +.+.;.;.;.B #.:.u r :.u & . f                                   ",
"                              O O 1 6 g N x X.:.N 0.Z u.m S A S S [ [ q.Z [ q.B [.%X1X1X%Xr y .                                 ",
"                                O O . . - - i C ( } ^ ^ ^ ' ' ' ^ ^ ' { / E ] 9.z.%XlXlX3Xd y . .                               ",
"                                O O   . . . f } Q Y v.R U J F K P J U J b.J Q e.. 2.2X2X-Xl r .                                 ",
"                                O O     . . 6 T H.G.G.9XI.I.G.Y.R.U.U.G.H.H.M.T j s x.i.Q.j + +                                 ",
"                                O     .   X 5 Y pXiX8XqX8XfX7XT.7XsX7X8X8XaXb.F Q . & . $ .   O                                 ",
"                                O       . O 8 P pXdXS.F.F.8XG.R K.6XS.A.Z.fXN.1 w . . . % 6 O O                                 ",
"                                            4 J pX0XF.6XD.U.J.P P.6XL.A.n.aXB.4 w X           O                                 ",
"                                . O . . . X 2 P 0X0XF.6X6XU ! H P n.6XD.K.pXB.1 7 X X   o X @ O                                 ",
"                                      .   X 2 P 0XgXwXwX6X! 7 2 U v.0XpXdXfXN.F K X X     . O                                   ",
"                                O   .       2 P pXgXeXwX7X! H 2 J U pXyXyXyXN.F G X   X   . . O                                 ",
"                                        . X 4 P pXgXgXwX7XY 7 2 2 Y oXuXaXuXM.1 7 X X       O                                   ",
"                                O O   .     4 P pXhXgXsX7XU 7 O 7 2 C.M.V.V.T 5 3 X         O O                                 ",
"                                O O     . O 4 P rXfXdXiXrXI G X f : _ { { L 5 6 #   X       O O O                               ",
"                                O O   .     4 J oXpXpXyXoXT 8   ; m {.+XOX` + O o         O O O                                 ",
"                                  O   . .   5 K H.Y.Y.R.V.G 3 . & M W.Q.E.E + . .     X     O O                                 ",
"                              O O         O 5 G I ! I I { 1 6 $ . - & . % $ . .   .       O O O                                 ",
"                                            # 8 G 4 1 5 w w + . . . . . o . .                                                   ",
"                                        .   O @ 3 O 1 @ # * . O       X X               .                                       ",
"                                    .         X X X   X X X                                                                     ",
"                                                          .         O X X                                                       ",
"                                          O       . .           O                           X                                   ",
"                                        O O         .       O     O               O   O                                         ",
"                                        O O O     .   . .   O O       .               O                                         ",
"                                .   O O O 1 O     . .       O O . O   . .   .                                                   "
};
