/* XPM */
static char *f543331da0a0413dc8d0d573003505ed2sikk69N4plmWQAj[] = {
/* columns rows colors chars-per-pixel */
"64 64 206 2 ",
"   c #000000",
".  c #0A0404",
"X  c #040905",
"o  c #060609",
"O  c #0A0A0B",
"+  c #09090A",
"@  c #150C0D",
"#  c #0E0F12",
"$  c #0F1013",
"%  c #1A1A1A",
"&  c #181515",
"*  c #231A1D",
"=  c #002913",
"-  c #0A2D1B",
";  c #08321C",
":  c #14341F",
">  c #1C1E21",
",  c #0A3722",
"<  c #163A25",
"1  c #153B26",
"2  c #2A2925",
"3  c #2A2B2C",
"4  c #262526",
"5  c #312C2D",
"6  c #2E2F32",
"7  c #2F3032",
"8  c #323334",
"9  c #3B3B3B",
"0  c #3A363A",
"q  c #14422B",
"w  c #19462F",
"e  c #1B4933",
"r  c #284B38",
"t  c #344C3C",
"y  c #214B36",
"u  c #433F41",
"i  c #3A4F40",
"p  c #2B5C44",
"a  c #3B5B4C",
"s  c #375A47",
"d  c #2F604A",
"f  c #3A634C",
"g  c #396651",
"h  c #3D715B",
"j  c #474848",
"k  c #5A5355",
"l  c #5D5C5C",
"z  c #565657",
"x  c #4C534D",
"c  c #625A58",
"v  c #476554",
"b  c #506B59",
"n  c #57665D",
"m  c #45715C",
"M  c #51725E",
"N  c #61645D",
"B  c #655F61",
"V  c #5B6863",
"C  c #4D7965",
"Z  c #4C7763",
"A  c #547463",
"S  c #5D7565",
"D  c #5C7E6E",
"F  c #527B68",
"G  c #6C6B6B",
"H  c #686465",
"J  c #65786C",
"K  c #737474",
"L  c #787B79",
"P  c #70716E",
"I  c #827A7A",
"U  c #56816D",
"Y  c #5C8C76",
"T  c #658675",
"R  c #648A76",
"E  c #6C8C7C",
"W  c #698475",
"Q  c #748A7E",
"!  c #76867B",
"~  c #65937D",
"^  c #82817F",
"/  c #738D81",
"(  c #7E8C82",
")  c #6B9482",
"_  c #7A9285",
"`  c #7A9B8B",
"'  c #769787",
"]  c #7CA592",
"[  c #78A892",
"{  c #77A38C",
"}  c #838485",
"|  c #8C8E8D",
" . c #878788",
".. c #948B8C",
"X. c #829C8D",
"o. c #86948A",
"O. c #8A9C92",
"+. c #999896",
"@. c #A39B9C",
"#. c #8CAC9A",
"$. c #87A696",
"%. c #95A89B",
"&. c #A3A09F",
"*. c #A9A19F",
"=. c #9D9EA2",
"-. c #A39EA1",
";. c #A99EA2",
":. c #9EAAA2",
">. c #97ABA2",
",. c #99B6A7",
"<. c #8FB9A5",
"1. c #A4A2A2",
"2. c #ABA4A4",
"3. c #A4ABA5",
"4. c #AAABA5",
"5. c #ACABA8",
"6. c #A7A8AA",
"7. c #B2ACAA",
"8. c #ABB3AD",
"9. c #A4B5A9",
"0. c #B3B2AD",
"q. c #B9B1AF",
"w. c #AFAEB1",
"e. c #B3AFB3",
"r. c #ACB9B2",
"t. c #B5B3B4",
"y. c #BAB6B2",
"u. c #BCBAB6",
"i. c #BDBCB9",
"p. c #B9B8B8",
"a. c #C1B7B9",
"s. c #C2BCBB",
"d. c #9CC5B0",
"f. c #9ECBB4",
"g. c #A0C1AD",
"h. c #A8C4B3",
"j. c #B2C1B5",
"k. c #BCC3BA",
"l. c #BBCCBF",
"z. c #B4C7BB",
"x. c #ACD5BF",
"c. c #B5D0BF",
"v. c #C3C3BE",
"b. c #C3C9BF",
"n. c #BCBDC1",
"m. c #CDBFC2",
"M. c #BEC2C4",
"N. c #BCCDC1",
"B. c #BAD8C7",
"V. c #AAD7C2",
"C. c #C4C4C3",
"Z. c #CBC2C2",
"A. c #C5CCC4",
"S. c #CBCAC5",
"D. c #CCCDCB",
"F. c #C5C7CA",
"G. c #D2CDCB",
"H. c #D3C7CA",
"J. c #C3D2C6",
"K. c #C6D3C9",
"L. c #CDD4CC",
"P. c #CADACD",
"I. c #C4D9CA",
"U. c #D2D2CE",
"Y. c #D9D1CF",
"T. c #CCCED2",
"R. c #D7CDD1",
"E. c #CED1D3",
"W. c #CCDCD2",
"Q. c #C6DAD1",
"!. c #D4D4D3",
"~. c #DAD4D3",
"^. c #D5DCD5",
"/. c #DBD9D5",
"(. c #D3D5D8",
"). c #D6DBDB",
"_. c #DBDBDC",
"`. c #D8D6D9",
"'. c #E2DEDB",
"]. c #E1D5D6",
"[. c #C9E6D6",
"{. c #DDE2DD",
"}. c #D5E5D9",
"|. c #E2E3DF",
" X c #DCDEE2",
".X c #E1DEE1",
"XX c #E8DDE3",
"oX c #DEE1E4",
"OX c #DCEBE2",
"+X c #D9F7E7",
"@X c #E2E3E3",
"#X c #EBE3E5",
"$X c #E4EAE4",
"%X c #E9EBE6",
"&X c #E4E6EA",
"*X c #ECE5E9",
"=X c #E6EAEC",
"-X c #EBEBED",
";X c #F0EAED",
":X c #F0E6E9",
">X c #ECF2EC",
",X c #EBEEF1",
"<X c #F0EEF1",
"1X c #EEF6F5",
"2X c #F1F1F1",
"3X c #F9FCF9",
/* pixels */
"                                                              X                                                                 ",
"                                    X                 X                                                                         ",
"                                                                                                                                ",
"                                            X                                                                                   ",
"                                                X                                                                               ",
"                                                          X         o                                                           ",
"                                                    X       o o   o       o       o o         o                                 ",
"                                o       o   o         o o             o       o                                                 ",
"                                o o o                 o   o o o   o     o o o o   o   o o o o                                   ",
"                                # o   o o o # > 3 3 6 6 6 8 6 8 9 9 0 8 6 6 4 3 4 4 > # o o   o             X                   ",
"                                o o 6 } =.e.n.(. X X X.X&X&X,X=X=X,X=XoXoXoXoX X XT.M.6.=.V o o                                 ",
"                                o # K T.(. X(. X(.(. X X X XoXXXoXoXoXoX X X XoX X(.E.(. Xw.> o .                               ",
"                                o o | F.m.T.T. X X X X X.X.X X.XoXoXoXoX X X X X). X(.(.B.M.3 o                                 ",
"                                o # 6.(.T. X X X X X&X.X&X=X=X=X=X,X=X=X&XoXoXoXE.).T.(.M.(.j o o                               ",
"                                # V n.&X X=X*X X&X*X=X,X,X,X<X,X,X,X=X,X=X,X=X,X1X=X,X=X&XoX_ 4 o X                             ",
"                                9 n.n.m.n.F.T.(.(.(.(.`.).`. X). X X(.(.(.E.E.E.E.M.(.M.n.M.n.}                                 ",
"                  X     .       l E.m.E.=X X XXX:XXX:X:X;X;X-X>X2X2X<X;X;X-X*X*X,XoX X X&XE.(.;.&                               ",
"                                 . X X X&X X.X=XXX:X:X:X*X*X2X3X2X-X#X#X*X;X*X&XoXoX,X=X.X.X.XH.4 #         .                   ",
"                            o   4 k -.e.e.e.e.n.s.a.a.s.m.s.p.t.p.p.a.u.a.a.s.s.t.p.n.p.w.e.P u % +                             ",
"                      .         . +  .;.-.;.@.;.@.@.@.*.4.4.3.1.3.4.5.5.2.1.@.+.6.=.-.;.6.t.0 .             .                   ",
"                  X       .     . . I @...+.+.;.2.7.7.7.4.5.0.b.p.0.8.8.u.u.7.4.-.@.&.@.@.*.2 . .     X                         ",
"                                . . G 2.@.;.q.a.s.v.b.S.L.L.P.K.K.U.U.K.A.v.v.b.i.v.y.7.2...& . .                               ",
"                                . . c 7.7.q.a.a.b.A.L.P.P.b.j.9.j.l.L.W.K.K.K.K.A.v.y.a.s...@               X                   ",
"                      .         . . j 7.0.a.S.A.I.P.b.,.U t t t r t b X.c.}.[.A.S.D.s.v.v.^ .       X .                         ",
"                                .   2 0.u.S.k.K.I.c.s < < : b h.X.r : < r #.[.c.K.L.C.v.v.P   X                                 ",
"                                    2 0.q.k.b.W.c.s : q f f s +Xg.w m v ; , R [.P.A.A.Z.v.N                                     ",
"                                  X % 8.u.i.W.N.v = w g [ B.h.X.%.x.d.m p q ; #.[.A.S.S.k.j X                                   ",
"                                X   X +.s.v.^.X.Z g = r f.h.#.W X.g.x.~ q = M M l.^.L.Z.u.8 X X                                 ",
"                                      I Z.G.S.n ` <.[ d g A ] B.h.E C y Y Y d.f $./.U.s.u.4   X                                 ",
"                                  X . K Z.Z.C.n B.[.[ h ` R S r.Q v F C U x.+XX.L /.H.s.0.% X X                                 ",
"                                    . H m.m.Z.L ' D 1 C ] ` r.9.9.Q E #.y g { X. .'.s.R.+.O                                     ",
"                                X     c Z.Z.S.o./ f ; ) ' ' I.p.J.,.' ~ C ; R Q 5.XXs.Y...  X                                   ",
"                                X   . 5 b.Y.I.^ M q ; U ' Q ! %.J E ~ ~ y , Z ) 3.!.R.R.G . X                                   ",
"                                  X X 2 v.b.b.^ M q e ~ { X.O.h.$.D ` ] h , d / r.!.H.G.l   X                                   ",
"                                X X   & q.b.b.:.b ; m ~ R W J.1X+X>.) ) D 1 p W N.!.H.H.u                                       ",
"                                    . @ *.Y.b.b.M ~ h.U ' %.OX}.$X,.E U ] ] a _ E.`.H.m.5     X                                 ",
"                                        ^ ].Y.P.W g.g.M o._ 3.>XoX_ ' D ] +XW >.).~.R.p.*                                       ",
"                                  X .   I Y.b./.b.W : v Q o.Q %X+.E %./ , a ] (.^.!.~.;.@                                       ",
"                                      . H Y.b.U.}.o.x Q J O.+.W.>./ } _ v A T.).!.G.R.... .                                     ",
"                                X     . c Y.b./.^.}.g.^ ! } O.3XT.L _ J $.N.B.oX!.R.~.I .   .                                   ",
"                                o   . . j H.G.~.L.|.|.b.9.o.L.%XOXo.+.r.{.z.}.).!.~.H.B .                                       ",
"                                    .   0 s.S.U.'.}.|.}.%XU.$X$X>XL.).OX$X^.OX^.!.!.D.k   .                                     ",
"                                . o     2 u.G.G.~./.Y.|.%X|.|.{.{.$X$X>X^.{.|.!.!.!.!.u   .   .                                 ",
"                                  +     % q.U.U.~.|.].|.^.{.{.$X|.{./.%X~.%X_._.U.D.D.2   .                                     ",
"                                  o     . 1.U.G.Y.].Y.|.|.>XoXOX%XOX/.%X'.|.'._.!.D.M.%                                         ",
"                                o o       ..U.D.Y.].].|./.-X).{._.|.%X|.]././.!.!.L.6.O                                         ",
"                                o         ! U.G.].'.|.'.~.@X{.=X}.%X%X|.|.'././.L.!.O.                                          ",
"                                o   .     L U.G.].Y.'.'.|.-X{.oX%X@X~.|.'.'.U./.U.).}       X                                   ",
"                                    X +   k F.G.!.~.`._.'.@X@X$X@X@X@X|..X@X_.`.`.D.K                                           ",
"                                  +       j (.U.D.U.~. X@X@X@X.X@X=X@X@X_./.).!.!./.n       + .                                 ",
"                                  .   X   6 C.S./.).).)._.|.|.@X|.@X@X'.'.@X@XoXC.`.9   $                                       ",
"                                X       X % w.@XD.T.!.~.)._.@X*X@X@X@XoX'._.~.D.-XU.3   .   X                                   ",
"                                O   o     X l | C.!.&X2X2X-X-X-X2X2X-X2X2X2X@X!.-.G O       X                                   ",
"                                    O           % 6 j B H K L }  .I L G H z 9 3 %     O                                         ",
"                                          . +                 +   .   X + O X   X   +                                           ",
"                                  O   . X         .   X X .                       X +   +   X                                   ",
"                                                                                                                                ",
"                                                                                                                                ",
"                                                                                                                                ",
"                                                                                                                                ",
"                                                                                                                                ",
"                                                                                                                                ",
"                                                                                                                                ",
"                                                                                                                                "
};
