/* XPM */
static char *c086ab01295443aac5e216973345f18aWU23v7C3CHIqWIx6[] = {
/* columns rows colors chars-per-pixel */
"64 64 248 2 ",
"   c #010101",
".  c #0B0101",
"X  c #040906",
"o  c #0C0903",
"O  c #030609",
"+  c #0A030A",
"@  c #050A0C",
"#  c #0A0B0C",
"$  c #140303",
"%  c #1B0202",
"&  c #140A05",
"*  c #1A0903",
"=  c #130C0B",
"-  c #1A0C0D",
";  c #1A0409",
":  c #07100E",
">  c #0B110E",
",  c #12120C",
"<  c #060D11",
"1  c #0C0E11",
"2  c #080C18",
"3  c #190E12",
"4  c #051413",
"5  c #0C1213",
"6  c #0C1419",
"7  c #0C1A1A",
"8  c #051814",
"9  c #121414",
"0  c #1B1213",
"q  c #131A16",
"w  c #1A1A14",
"e  c #141619",
"r  c #1C161A",
"t  c #141B1C",
"y  c #1A1B1C",
"u  c #240202",
"i  c #2B0203",
"p  c #24050B",
"a  c #2B0409",
"s  c #240C0C",
"d  c #260E02",
"f  c #330202",
"g  c #35090C",
"h  c #380608",
"j  c #26130E",
"k  c #2D0D11",
"l  c #250C11",
"z  c #340C12",
"x  c #380B16",
"c  c #23131A",
"v  c #25191A",
"b  c #271416",
"n  c #331B1C",
"m  c #351716",
"M  c #3C110B",
"N  c #14211E",
"B  c #1B211D",
"V  c #1B2117",
"C  c #0F221E",
"Z  c #24261E",
"A  c #161D21",
"S  c #1B1D22",
"D  c #2C1820",
"F  c #142423",
"G  c #1C2324",
"H  c #1D252A",
"J  c #1C2B2C",
"K  c #172928",
"L  c #193134",
"P  c #222425",
"I  c #2A2A24",
"U  c #22252A",
"Y  c #242B2C",
"T  c #2B2B2B",
"R  c #282626",
"E  c #3E2527",
"W  c #26302D",
"Q  c #2B312E",
"!  c #252A33",
"~  c #292D32",
"^  c #243435",
"/  c #2D3233",
"(  c #2C3937",
")  c #2E353A",
"_  c #2D3C3B",
"`  c #253439",
"'  c #333536",
"]  c #33363A",
"[  c #35393B",
"{  c #3B3D3D",
"}  c #363A36",
"|  c #30332C",
" . c #430000",
".. c #4D0100",
"X. c #45090B",
"o. c #550001",
"O. c #5B0103",
"+. c #5E040A",
"@. c #550D0C",
"#. c #5C0B0A",
"$. c #52070C",
"%. c #471909",
"&. c #51190E",
"*. c #580D12",
"=. c #47171B",
"-. c #5B151C",
";. c #561617",
":. c #480B12",
">. c #640404",
",. c #61050C",
"<. c #630B0C",
"1. c #6B0D0A",
"2. c #680B06",
"3. c #730D0B",
"4. c #7C0B0C",
"5. c #760508",
"6. c #63130D",
"7. c #6C130D",
"8. c #73130E",
"9. c #7B140E",
"0. c #7D1A0C",
"q. c #620D13",
"w. c #6A0D12",
"e. c #670D1A",
"r. c #760C12",
"t. c #7A0C14",
"y. c #651312",
"u. c #6B1313",
"i. c #661912",
"p. c #6B1A14",
"a. c #6B151C",
"s. c #6A1A1D",
"d. c #65161C",
"f. c #731413",
"g. c #7C1314",
"h. c #741912",
"j. c #7C1D13",
"k. c #761519",
"l. c #7B131A",
"z. c #721C1C",
"x. c #791A1A",
"c. c #4E241A",
"v. c #63241B",
"b. c #75221E",
"n. c #521C22",
"m. c #5B1D28",
"M. c #4B1926",
"N. c #631D25",
"B. c #641C2C",
"V. c #671823",
"C. c #7B1C27",
"Z. c #482021",
"A. c #582629",
"S. c #4E3339",
"D. c #63252B",
"F. c #6B232A",
"G. c #642B2D",
"H. c #6A2725",
"J. c #72262D",
"K. c #79242C",
"L. c #732721",
"P. c #692932",
"I. c #732E33",
"U. c #7F2A31",
"Y. c #732837",
"T. c #773439",
"R. c #693238",
"E. c #29413B",
"W. c #35413F",
"Q. c #343D41",
"!. c #3B3E41",
"~. c #383846",
"^. c #364243",
"/. c #3B4344",
"(. c #3C4649",
"). c #384A4C",
"_. c #3C4D53",
"`. c #3A5659",
"'. c #2C474D",
"]. c #38635C",
"[. c #414445",
"{. c #434B4C",
"}. c #4B4C4D",
"|. c #454549",
" X c #48514D",
".X c #4D4D51",
"XX c #494D59",
"oX c #434A52",
"OX c #445353",
"+X c #4C5354",
"@X c #4B5859",
"#X c #525456",
"$X c #545A5B",
"%X c #5A5D5D",
"&X c #51555C",
"*X c #43625D",
"=X c #53625F",
"-X c #495F67",
";X c #545B63",
":X c #505261",
">X c #605F64",
",X c #5B6363",
"<X c #59676B",
"1X c #566A72",
"2X c #4F6067",
"3X c #636869",
"4X c #810F0F",
"5X c #890605",
"6X c #940F0C",
"7X c #8B140D",
"8X c #87180F",
"9X c #84140E",
"0X c #870E14",
"qX c #940F15",
"wX c #841413",
"eX c #8B1515",
"rX c #831C14",
"tX c #8C1A12",
"yX c #84151B",
"uX c #8B151A",
"iX c #84191A",
"pX c #8B1B1B",
"aX c #921513",
"sX c #921915",
"dX c #9A1519",
"fX c #921B1C",
"gX c #9A1817",
"hX c #92120F",
"jX c #A31D1A",
"kX c #872319",
"lX c #871B24",
"zX c #971D26",
"xX c #851E31",
"cX c #8B2224",
"vX c #8A242B",
"bX c #872726",
"nX c #942224",
"mX c #9B2325",
"MX c #942926",
"NX c #962C2B",
"BX c #9A2629",
"VX c #8A3127",
"CX c #8D2533",
"ZX c #832A34",
"AX c #872636",
"SX c #942B32",
"DX c #8D322F",
"FX c #A22627",
/* pixels */
"                                                                O             + O     O                                         ",
"                                + O O             O O   O       O   +                         @                                 ",
"                                              O               O +   +                 + 2 O                                     ",
"                                + O O O       O O                               #                                               ",
"                                              O                   +               # O O O     O                                 ",
"                                O     1 9 9 9 r 2       O                     +   # 1 # 9 <                                     ",
"                                      1 e e 9 9 y +     O                 O O O S P = + e 9                                     ",
"                                +   1 ~ [.}.}..XU 9           O O           O @ P [..X.X.X/ # X                                 ",
"                                    < P [ !.!.[.} P X @ @     @   O O     @ 1 P } } !.|.] y # +                                 ",
"                          X     @     1 9 1 @ # !.#XS 9 O 1   @     2   # O y ] .XP   + 9 q O                                   ",
"                                        + @ # 5 / r %Xy e #       5     9 # }.[.y 9 # 1 @     +                                 ",
"                                O             @   ] / [.(.#   O       e q $X/ T # O X O       O                                 ",
"                            X X O   O O         # 6 9 +X( S P   <   > Y U +Xt 5 1               X   X                           ",
"                    X                   O O @ @     t # { #X9 @ X 4 9 {.[.@ P       @ # O                                       ",
"                            X # e #               @   U P $X.Xt X @ OX+X/.q @   O           O + = 5 # +       X                 ",
"                          9 R ' [ Y 6 O           @ q   t ~ $XQ.( ^.$XW.5 > 9 X     X       5 P [ ' T q O                       ",
"                    X   B q ' ,X3XH e <   +     > 9 5 # @ e ~.:X1X2XQ.6 5 o o v ,   X   >   y 7 @X1X^.N Y 6   O                 ",
"                  #   5 y $X' O (.7 A < O +   + 0 5 > t A O O ~.`.'.8 O 5 w > o w ,   X X X : : @X7 K <XG @ O                   ",
"                  X   y   {.|.( (.A A       + y 1 9 6 G H   O Q.`.L < O 4 P y # , V X     X 1 6 ^ ^ /.@X@ < 2                   ",
"                @     t S U Q ] !.) ) 6 r #   #   4 t 6 O O A '.-X'.L 2   # S r   > q   X X H ~.).^.Y F Y 5   O                 ",
"                        t e e 6 {.oX{.U e   1 S X X 1     S oX:X1X-X`.! O + + =   # e   2 J oXXX[.t 1 S P     O                 ",
"                  #       O O H t [ $X&XY < O 9 B X   2 A [.<X<X1X1X-XoX~ #   O S q O 6 6 XXXXoX6 B 1 q                         ",
"                O O   1   <     1 U [ {.7 @ 4 N _ J C J ).*X*X*X].].].-X XW t Q ^.A @ 7 2 XX~.Y e 5   X   1     O     O   O     ",
"                      O   O 2   # 6 A /.7 e 4 4 {.%X(.( $X@X( _ E.E._ (.+X{ } $X#Xt 6 6 6 Q.!   O   X       #                   ",
"                  O   @ @         C A _ @ G 5 r S.E l $ p p % ; p % $ u u % % n S.q q q : W.^ X O   +     >     @       O     O ",
"              O   S 2   1 #   O   F 4 OXOXY R c k M.m.B.B.B.V.F.-.H.F.V.N.D.n.=.m v w Q  X_.J : 4 o X X # # # y @         O   O ",
"              + + [ / ~ ~.S 1 A O 8 C ` $X( r n M.B.Y.xXCXCXxXAXCXSXCXvXZXU.B.D.Z.n - R @X^ K 8   # 1 U { / Y Y S 1             ",
"            O O !.#X&X3X$XU < e 4 @ K 8 ( Y 3 b S.B.V.e.e.e.w.1.1.<.>.,.u.q.;.G.A.j - | } N C X 1 P 5 B {.%X3X3XY e O   O O     ",
"    O       O @ 6 e ~ &X#X~.|.XXe e @ 4 K q B . E M.=.f f f i i i f f f f h M =.Z.& , P y S @ 1 t +X{.Q.+X&X[ : G 5         .   ",
"            O O e P [ !.S S |.#X|.S 1 4 8 N 9 . ; a f f X.%.%.%.%.&.&.&.X.f u d s ; & 1 5 e   S ) @X^.t F _ ^.Y B >         .   ",
"              O r ' !.!     U ~.>X' ~   X B   * i  . .O.j.DXVXbXMXbXlXbXC.o.f :.p ; - S e O < ~ ;XOX^ O O K ( W.N > X         . ",
"          O   O   2 O 1 1   < S |.;X(.O 5 0 k h V.ZXSXzXnXpX3.>.4.pXuXt.yXvXZXU.D.a l D +   oX2X_.7 < O @ 8 @ : X X             ",
"                    + # O   # # r /.oX[.c z X.V.vXfX7XgXuXwXu...7.NXfXpXg.f.y.;.c.g k % D /.^.).7 1       O O                   ",
"                              X 5 G H S ; x V.SXpXaX6XgXdXwXs...7.kXwX9X3.r.#.@.;.M g u ; P Y ^ 4 < @   O O                     ",
"                                X y S 9 p m.U.lXeX7X7XgXfXiXs...7.kXeX4X9.l.6.@.:.X.=.x p 3 e 4 O         O                     ",
"                                    # 3 k B.vXuX8XtX7XsXuXl.a...7.MXtXwX4Xg.u.y.@.@.N.n.x l q     O   O O     O                 ",
"                                @ X & n ;.d.l.fXtXkX7X8XwXg.p...1.MXeX0X4.g.u.u.s.*.-.-.A.k b X O O @ O                   X     ",
"                      X         X q v m D.K.lX0XtXrX0.0.t.k.a.o.1.MXeXeX4.4.8.p.a.#.*.-.G.g j .   O     O O                     ",
"                            + , X , & % F.SXzXeX8XrX0.9.9.r.a.o.3.mXeXwX4.g.f.p.<.#.+.d.T.g % & S 6 O       O O                 ",
"                            9 P $XQ $ u U.wX5XjX8XkX0.h.3.f.a.o.8.MX9X4.4.l.7.7.p.y.,.q.T.i * n .X] t O   O                     ",
"                X       # w I {  XW.j u z.fXdXgX8XkXj.h.7.k.a.O.1.MXwXg.3.7.7.7.7.6.O.s.I.i * I $X/.! G e     O                 ",
"                    X     + ' 3X XZ $ i DXBX6X5X8X8Xj.7.8.k.u.o.3.NXpXrX9.j.i.v.#.O.O.a.I.f * Z ' ,X{.6 6 2                     ",
"                          # T }.} y . i b.tX6XjXtXrXg.h.f.k.u.O.2.MXg.g.2.7.6.i.p.y.,.s.I.u . > |.{.] e O + O     O             ",
"                        X = q y +X' & u L.fX6XdXtXpXrXk.r.k.y.o.3.MXpXg.7.h.i.i.*.+.O.s.T.i & V  XG 6 6                         ",
"                            1 S Y U - d L.kXaX6XtXtXiXt.r.k.y.o.3.mXuXwX7.h.i.i.y.<.+.a.Y.k & Z q J e X @     O .               ",
"                    X       # y 2 S r u v.rXsXgXaXuXiX0Xt.k.i.o.5.MXeX9.1.7.6.i.s.w.,.a.P.i o V F e 4       O                   ",
"                      X = q r y :X~.9 * H.VXsX5XsXeXuX0Xt.l.u.o.4.FXsXrX9.h.p.p.6.+.+.a.Y.g - W @X7 5 G @   #                   ",
"                      # y T ] Q.:X~.0 u L.bXtXhXdXuXyXt.r.g.y.O.5.mXeXg.3.7.i.u.7.w.,.V.R.a = Y $X^.( [ ~ @   O                 ",
"                      y y #X>X#X).` r i AXlXqXdX0XpXkXh.1.f.p.O.4.nXrX0.h.7.2.h.k.r.+.-.D.i l Z [. X$X,X> > X                   ",
"                      w # T I 5 _.H c a C.xXzXqXzXpXrX7.1.u.1.O.4XBXpX8.h.7.7.f.<.O.,.J.R.a s R W.y V W.B X                   . ",
"                      # , P ' Y ^ 6 c z :.k.SXpXeX7X9X9.8.h.u.O.5.zXpX3.3.7.7.>.>.w.K.B.=.l 3 9 Q G P Y q @ X                   ",
"                #       X # R T t # = k u ;.bXcX9X0XsXpXg.h.7.O.5.mXnXg.h.h.7.>.O.#.J.;.a b r q q W } > X                   .   ",
"                +   X   +   # + y e   . & c.v.b.pXfXgXfXg.k.#...t.zXlXl.f.#.<.*.V.$.m.A.k &   > > q q X @                       ",
"                        #   # # + 3     o m %.v.VXcXzXeXlXbXs...r.xXC.k.y.#.*.H.T.D.n.m ; .     :   X   >     :               . ",
"                  X             +         o d c.-.z.lXC.K.T.G.X.V.AXK.B.H.D.G.G.:.A.g % . + : @     X                           ",
"                                #     X     $ u u *.J.J.N.G.A.M X.P.D.N.G.A.A.=.% g $ $ X       X                               ",
"                                O O O       . . % a z g a u s p a i i u a s u d $ $ . .                                         ",
"                                O O   O         . $ ; ; $ ; ; ; ; $ * ; $ $ ; $ . . .                                       .   ",
"                                O O O   O +   +     O   +   + + +   .   . .     X                                               ",
"                                  O     O O         O                                                                           ",
"                                  X     +       O X   X   X                                                   .                 ",
"                                          .         X   X                                                                       ",
"                                  X                                   +   +       X         .   .                               ",
"                                  X                                     + O                           .   .           .         "
};
