/* XPM */
static char *_d59d5d69af44d57dd3bd0cfdf58bd7dVqSffvPRnFykf6SN[] = {
/* columns rows colors chars-per-pixel */
"64 64 183 2 ",
"   c #010101",
".  c #090604",
"X  c #050807",
"o  c #090807",
"O  c #05060C",
"+  c #050A0B",
"@  c #0A0B0B",
"#  c #0E100F",
"$  c #040710",
"%  c #0E0F11",
"&  c #121315",
"*  c #131917",
"=  c #16161B",
"-  c #18171C",
";  c #16191B",
":  c #1A1B1D",
">  c #222523",
",  c #262C2C",
"<  c #2A2D2D",
"1  c #2C302F",
"2  c #2D2F32",
"3  c #2C3031",
"4  c #333434",
"5  c #34363A",
"6  c #35393C",
"7  c #393B3D",
"8  c #2A3946",
"9  c #253C4E",
"0  c #2D3E4D",
"q  c #303D4E",
"w  c #2D3E51",
"e  c #303E51",
"r  c #2D404F",
"t  c #3E4243",
"y  c #30404F",
"u  c #38444D",
"i  c #2E4152",
"p  c #2D475C",
"a  c #2F495E",
"s  c #344555",
"d  c #384551",
"f  c #374955",
"g  c #3B4A55",
"h  c #34465B",
"j  c #34495D",
"k  c #394A5C",
"l  c #2F4960",
"z  c #344A61",
"x  c #414745",
"c  c #43474A",
"v  c #474B4E",
"b  c #404D55",
"n  c #4B4F53",
"m  c #434F5C",
"M  c #4E5254",
"N  c #42505B",
"B  c #4A525B",
"V  c #535559",
"C  c #55595C",
"Z  c #5E605D",
"A  c #424F60",
"S  c #455161",
"D  c #4F5E6C",
"F  c #545E67",
"G  c #5D5C61",
"H  c #525E6A",
"J  c #4E616F",
"K  c #5C6364",
"L  c #54616D",
"P  c #506371",
"I  c #5D6671",
"U  c #606165",
"Y  c #61666C",
"T  c #636A6C",
"R  c #6A6B6F",
"E  c #616570",
"W  c #666B71",
"Q  c #696C71",
"!  c #636F7D",
"~  c #6E7274",
"^  c #67737F",
"/  c #6A737C",
"(  c #747577",
")  c #737977",
"_  c #71767C",
"`  c #717A7B",
"'  c #797C7D",
"]  c #667581",
"[  c #6B7783",
"{  c #787B80",
"}  c #7D8485",
"|  c #7A8A87",
" . c #7F8789",
".. c #7D8B8B",
"X. c #758383",
"o. c #828886",
"O. c #838B8C",
"+. c #888C8D",
"@. c #86918D",
"#. c #8D8E92",
"$. c #869292",
"%. c #8D9496",
"&. c #889B97",
"*. c #8B959E",
"=. c #8D9C9B",
"-. c #939796",
";. c #909599",
":. c #929D9E",
">. c #9B9F9E",
",. c #8DA09E",
"<. c #93A19E",
"1. c #98A19E",
"2. c #8A95A4",
"3. c #8F9CA5",
"4. c #959CA4",
"5. c #919CA3",
"6. c #9B9EA3",
"7. c #999EA2",
"8. c #9A9DA4",
"9. c #9B9EA5",
"0. c #9A9FA5",
"q. c #999EA4",
"w. c #9C9FA4",
"e. c #9B9EA2",
"r. c #959FA8",
"t. c #959FA8",
"y. c #95A2A2",
"u. c #99A0A3",
"i. c #9BA1A5",
"p. c #9DA2A6",
"a. c #9BA4A4",
"s. c #9AA8A5",
"d. c #9FA6AE",
"f. c #9BA5AB",
"g. c #9CAAAA",
"h. c #A2A3A7",
"j. c #A0A4A7",
"k. c #A3A9A7",
"l. c #A2A7AD",
"z. c #A3ABAD",
"x. c #ACADAF",
"c. c #A5ACB3",
"v. c #ABAEB3",
"b. c #A5AEB8",
"n. c #A7B0B7",
"m. c #AEB2B7",
"M. c #ACB1B5",
"N. c #A5B3BC",
"B. c #AFB6BE",
"V. c #ABB3BD",
"C. c #B0B1B5",
"Z. c #B0B3B8",
"A. c #B1B5BA",
"S. c #B2B7BD",
"D. c #B3B7BB",
"F. c #B4B8BD",
"G. c #ACB6C0",
"H. c #B2BAC1",
"J. c #BABDC3",
"K. c #BABFCB",
"L. c #B6C1C5",
"P. c #B9C2C7",
"I. c #BCC4C7",
"U. c #B9C2C6",
"Y. c #B9C2C9",
"T. c #BDC2C9",
"R. c #BBC5CA",
"E. c #BAC3CC",
"W. c #BBC4CD",
"Q. c #BAC4CD",
"!. c #BCC4CF",
"~. c #BCC3CC",
"^. c #BEC8CE",
"/. c #BDC7D0",
"(. c #BECAD2",
"). c #C2C6CA",
"_. c #C1C6CC",
"`. c #C0C8CB",
"'. c #C2C9CE",
"]. c #C8CCCF",
"[. c #C3CBD4",
"{. c #C7D0D9",
"}. c #D0D3D8",
/* pixels */
"                          X           X               X                       X       X                   .                     ",
"                      X                     X                 X     X                       X                                   ",
"                                                                                                                                ",
"                                                                                                          .                     ",
"X   X                                                                                               .                           ",
"X X                                                                                                             .   .         X ",
"  X X X X                                                                                                     .         .   O   ",
"X   X X X   X                       .                         . .                   .           .                 O O   O   O   ",
"  X   @ o X # : : ; = : : ; ; ; - = = = - = = = = - = = - = = = - - - - - - - - - - - - = - - - & = = : : : : = - & @     @     ",
"  @     X > ~ %.p.u.>.y.i.y.7.y.8.8.8.8.8.8.8.8.8.8.8.8.8.8.8.8.w.w.w.8.8.8.9.9.9.9.9.9.9.9.9.i.8.9.9.9.w.w.w.e.h.#.G =   O   O ",
"  X   X X n Z.I.`.I.I.I.Q.L.Y.Q.K.E.E.K.E.E.E.E.E.E.K.E.E.E.E.E.E.K.E._._.E.E.E.E.E.!.Q.E.!.!.E.!.Q.E.E.).K.).K._.].w.7   O     ",
"    X X @ K J.s.` / ^ / ^ ! ^ ^ ^ ^ ] ] ^ ] ^ ^ ^ ^ ^ ] ^ ^ ] ] ] ^ ] ] ^ ^ ] ] ] ] ^ ] ^ ^ ^ ] [ ] ] ^ / ^ / / _ C.C.n     .   ",
"        + T R.$.b f f f f f f f h s s s h d s h d h s s s s s s d h h s d h h s d s h s s s h s h s s s d g d d B l.D.n     . O ",
"X   X X + T (.,.b g f f j j a z k h h k k h k k h k h k h h j k s h h h h h h h k h h h h h h h j j j k s k g g B l.D.v O   @   ",
"    X X + T (.,.b f a N z l a z z h z h h z z h h z z h j z j z z h h h h h h h h h h h h h z h a a a j h h f d d 4.M.n   . .   ",
"        + T R...N g a N z l a a z z z z z z z z z z z z z z z z z z z z z z z z z z z z z j j j a a a j h s d q q 4.D.V O       ",
"        $ Y K.*.N h s k h h z z z z j z h j z h j j z z j j j j z z z k z h k z j j j s p p j j k j p s s r 0 y u i.S.n     O   ",
"    O   $ Y K.2.B s k k h h z z z h j z z j j z l j j j j z z j z z z z z z z z j j j p s f j j s s s s y y 0 8 d 4.H.n         ",
"    O   $ Y K.*.m s g k h h z z z h z h j z z j z j j j j j z l k z h z k z z k j j j j j f j f r r r r y q 0 0 d t.G.n     .   ",
"        $ K Y.*.B s s k z h z z h z j z j h z j j j z z z j j j k z z z k z z z j j j j j j p i r r r r 0 0 0 0 d y.G.n     .   ",
"    O   $ Y K.*.m d s k h z z z j z j j z j z h j j j j z j j j z z z k z z k k k k k j s s i i 9 8 0 8 r 0 0 0 d t.H.n     .   ",
"        $ Y K.*.m h s z h h z z j j j j h z j z a j j j j j j j z k k k k z k k k j f p i i i i 9 r r 8 9 0 r 8 e t.D.n     .   ",
"        O Y K.*.m d h k h l z z z j j j p j j j j j j j a j j j z h z k k j j j s p s i 0 9 0 0 r r r 9 0 0 0 0 d 9.G.n     .   ",
"  O     $ Y T.*.m d h k h h z h j j j j j j j j j j j j j j j a A k z z j k k j s i i r 0 0 0 0 r r r 0 r 0 0 8 d t.G.M     .   ",
"    O   $ Y K.*.m f f k z h z z j j j j j j j j z k j j j j j f h h h h A h e e w w 0 0 s 0 0 0 0 r i 0 0 0 0 8 d 5.H.n         ",
"        O Y K.*.m f h k h h z z a j j j j j a f j j j a j a j j h h h A h h e e 0 w 0 e 0 0 0 0 r r 9 0 0 0 q q d 5.G.n   O     ",
"    O   O Y K.*.m f f k z h z z j j j s f j j a j j f f a f f p A h h h e e e e 0 0 0 r 0 0 0 0 0 r 0 0 0 8 0 8 d 5.H.n   .     ",
"    O   O Y Y.*.m d h k h h z h j s j j a j f f j f j a f f p p h e h e e w e e 0 0 0 r w 0 r 0 0 r 0 0 0 0 0 q d 5.H.n     .   ",
"        $ E K.*.m d s z k h z z a f j f j j j j j j j j k f p f e w w q w w e w 0 q 0 q y 0 r r r r r 0 0 0 0 0 e 5.H.n         ",
"      O $ E Y.*.m s g k h h z z j j f p a f f j j j k a f a f f w w q w w e e w 0 0 r y q 0 r 8 0 9 r 0 0 8 0 8 d 5.H.n   O     ",
"        $ Y K.2.m h d k z h z h j a j j j f j a f a a f a p r r e w q w q w e e 0 q 0 y y 8 0 0 0 0 0 9 0 0 0 0 d 4.H.n   .     ",
"  O O   O E K.*.m g s z h h z z j f f j f a j f f f j f p r r r w w q q w w w w 0 q 0 r y y 0 0 r r 0 r 0 0 0 0 d 4.H.n   .     ",
"    O   $ E K.2.m h h k f p j j z z z z z z h h h h p w w w w w e e q q q q q q r 0 0 0 0 r 0 r 0 0 0 8 r r 8 r u 3.H.n X X     ",
"        $ I K.2.A d s k s p j j e e A e k h h h e p e p w w w w e e q q q q q q 0 w w q 0 0 0 r r r 0 r 8 r r 6 u 3.B.n         ",
"      O $ I K.2.m e s k s j z j z A k A z e h h e w w w w w w w e e q q q q q 8 0 0 0 0 i 0 r 0 0 r 0 r r 8 r 8 u 3.H.n         ",
"      O $ E K.2.A k h k p p z a z e z z e z e p w w w w w w w w q e q q q w w w 0 w 0 0 0 r 0 r r 0 r 0 r 8 r r u 3.H.M   X     ",
"        $ Y K.2.A k h z p l l a z z e e w w w w p w w w w w w e q w q q q q w w w 0 i w w i w 0 0 r 9 r 9 r r 8 d 3.H.n   X     ",
"      O $ E K.2.A e h z p p l l z m z e w w w w e w p w w w w w w e q w q q w w w w w r 0 0 i w 9 r i i r 9 r 8 s 3.H.n         ",
"        $ Y K.2.S e h z p p p p h h e e w w w w w e w w w w w w w w 0 0 w 0 w 0 0 w 0 w 0 0 0 w i r 9 9 9 9 r r d 3.H.n   .     ",
"        $ E K.2.S k k z p p l p w e e s w e e w w w w w w 0 0 w 0 w w 0 0 0 0 w 0 0 r 0 0 w 0 0 i r i 9 r r 9 0 u 3.H.n         ",
"        X W E.2.k g k h j j p 9 w w q q 0 0 0 q e q q e e q 0 8 w e 0 0 r y s y r r r r w y y s r r i r r r r y 8 f.S.M X       ",
".         E H.*.S k s w 9 w 9 r 8 8 q q 8 8 8 0 8 8 q 8 8 q q 0 8 8 8 8 8 8 8 8 8 8 8 8 8 8 8 8 8 9 0 8 8 r 8 8 d f.B.c   X o   ",
"    .   O Q _.c.[ ] I L J J P P L H P H H H H H D H I H H H I H D L L L L F H H H D F F H H H H L J D D J L H L H f.M.M . o o   ",
"  . .   @ R _.H.G.G.G.N.G.N.N.N.N.V.V.V.G.V.V.V.b.b.b.V.b.b.b.b.N.N.G.V.N.N.N.N.n.V.N.n.V.V.V.V.N.N.N.c.N.N.N.n.n.R.S.C O     . ",
"        & U D.J._.!.!.(.(.(././.[._.K.K._._./.K.[.K._.[.[.'.[.{.[.(.(.(.(.(.[.[./.!.!.^.!.^.!.I.I.I.^.^.^.!.^.I.Y.'.m.M .   .   ",
"  .     % V C.}._._.!.I.I.I.!._._._._._._._.[._.].T.K.T.K.J.K.I.Q.L.L.L.L.L.P.L.!._.^.^.!.I._._.).).'.'.'.^.'.!.K.'.j.7   @ @   ",
". .     O 2 ' h.v.v.v.v.c.c.v.v.C.v.v.v.C.C.v.v.v.J._.K.J.J.K.J.R.L.L.L.P.L.H.B.M.m.m.M.m.M.v.v.x.x.v.M.M.M.M.c.A.x.~ =   .   . ",
"    . o     - 2 5 6 6 7 7 6 5 5 5 5 5 5 5 8 5 5 M { -.;.#.7.8.&.=.=.%.=.:.:.@. .6 6 6 6 6 6 6 5 4 4 5 7 6 6 4 5 5 , &   @ o   . ",
"                                  @ $     O     : ] O...$.| ..| ..| @.| X.@.@.K X   X X   X   X                                 ",
"                                $       X O X X , ..5.*.3.&.y.3.,.&.,.,.&.1.:.) *   X                                           ",
"                                      O     $ O 6 %.g.<.y.y.g.y.s.,.s.s.:.1.s.@.,   X X   X                                     ",
"                                    X   X     $ K y.c.y.y.y.g.y.g.,.s.g.1.s.s.1.t +   @                                         ",
"                                  @     % X   < ..y.i.y.u.<.3.<.s.,.<.y.1.>.1.1.) > X X o                                       ",
"                                  .     +   & T i.p.a.y.g.y.y.a.s.<.1.y.s.1.1.k.a.M     o                                       ",
"                                    X .   X t +.z.y.p.u.g.d.a.g.a.s.s.a.k.s.k.k.1.' 4 # o                                       ",
"                                X     X @ 7 ( } +.+.+. .} O.O. .O.@.o.o.o.o.o.o.} -.Z > o                                       ",
"                                      @ = > < < 3 2 2 , , , , , , , , , , , , , < < < > @                                       ",
"                                          . X X O   X   O   O O   X       X X   X . .                                           ",
"                                .       o o .                                 X   . .   . .   .                                 ",
"                                      . . o o X X X X O   O   O   X   X O O X O @ o . .                                         ",
"                                                                                                                                ",
"                                .                           O     O             .                                               ",
"                                                                O                                                               ",
"                                                        O                                                                       "
};
