/* XPM */
static char *f96c38191d8a42a1b00023d78b506661TYoRBF3uu4lytPfe[] = {
/* columns rows colors chars-per-pixel */
"64 64 234 2 ",
"   c #000001",
".  c #0A0201",
"X  c #0C0A04",
"o  c #01020B",
"O  c #0C0B0B",
"+  c #09060A",
"@  c #120300",
"#  c #1D0500",
"$  c #140B02",
"%  c #1B0B02",
"&  c #120D0C",
"*  c #190A0A",
"=  c #0E110A",
"-  c #1C1103",
";  c #1C130B",
":  c #141208",
">  c #010313",
",  c #00041C",
"<  c #030A14",
"1  c #0D1318",
"2  c #1C1A16",
"3  c #181618",
"4  c #260E04",
"5  c #241304",
"6  c #22160B",
"7  c #24190D",
"8  c #2B1B0D",
"9  c #2A1807",
"0  c #321C0D",
"q  c #211612",
"w  c #231C14",
"e  c #231D1B",
"r  c #2A1E13",
"t  c #31170A",
"y  c #33200D",
"u  c #3C250E",
"i  c #2B2116",
"p  c #24211A",
"a  c #2B231B",
"s  c #2A261B",
"d  c #342212",
"f  c #3B2414",
"g  c #33261B",
"h  c #34281D",
"j  c #3B2A1B",
"k  c #3C2817",
"l  c #2F200B",
"z  c #000522",
"x  c #000C24",
"c  c #000B29",
"v  c #00132E",
"b  c #0A122A",
"n  c #151928",
"m  c #000B35",
"M  c #041533",
"N  c #171C39",
"B  c #221F32",
"V  c #14212B",
"C  c #192633",
"Z  c #2A2625",
"A  c #312622",
"S  c #342B25",
"D  c #3C2D23",
"F  c #382827",
"G  c #3D3229",
"H  c #2A2E38",
"J  c #3A3832",
"K  c #451600",
"L  c #432609",
"P  c #422D1D",
"I  c #492E18",
"U  c #482A14",
"Y  c #48321C",
"T  c #53351D",
"R  c #5E2D0C",
"E  c #6C3B18",
"W  c #412D23",
"Q  c #4A2F24",
"!  c #443223",
"~  c #4A3523",
"^  c #4D3B2C",
"/  c #473629",
"(  c #553A26",
")  c #5A3B25",
"_  c #533D2C",
"`  c #553926",
"'  c #4A3D33",
"]  c #463B35",
"[  c #623D22",
"{  c #5A412C",
"}  c #4B453B",
"|  c #4E4A3E",
" . c #534233",
".. c #5B4433",
"X. c #54493C",
"o. c #594638",
"O. c #664229",
"+. c #774725",
"@. c #644A37",
"#. c #69523F",
"$. c #77563D",
"%. c #754C30",
"&. c #061848",
"*. c #1B2A47",
"=. c #162A55",
"-. c #08244A",
";. c #26354C",
":. c #2C364B",
">. c #0B3068",
",. c #3B485B",
"<. c #1F487C",
"1. c #374C6A",
"2. c #274674",
"3. c #365072",
"4. c #4A4846",
"5. c #574C41",
"6. c #58544B",
"7. c #434A59",
"8. c #515657",
"9. c #675343",
"0. c #6A5849",
"q. c #795945",
"w. c #605D58",
"e. c #79614B",
"r. c #7B6656",
"t. c #686458",
"y. c #465267",
"u. c #485C7C",
"i. c #434C67",
"p. c #6C6C6A",
"a. c #7C766D",
"s. c #7A7771",
"d. c #746C69",
"f. c #844C25",
"g. c #84512A",
"h. c #855936",
"j. c #935D37",
"k. c #8E623C",
"l. c #A2693C",
"z. c #865E45",
"x. c #866349",
"c. c #946746",
"v. c #886C56",
"b. c #96755B",
"n. c #99765A",
"m. c #926E54",
"M. c #A66E45",
"N. c #AA7249",
"B. c #B5764A",
"V. c #A77958",
"C. c #B47C53",
"Z. c #9D7E6A",
"A. c #957B67",
"S. c #8A7869",
"D. c #A47D63",
"F. c #BC835A",
"G. c #AE825D",
"H. c #9B826B",
"J. c #8B867C",
"K. c #9A8576",
"L. c #A88368",
"P. c #BB8863",
"I. c #B78867",
"U. c #A68D7C",
"Y. c #A78A74",
"T. c #B68E74",
"R. c #BB9273",
"E. c #B69777",
"W. c #AE927D",
"Q. c #C7885A",
"!. c #C18A62",
"~. c #C38D6A",
"^. c #CA9169",
"/. c #DC9B6D",
"(. c #D69566",
"). c #C59876",
"_. c #D79D75",
"`. c #E29E6D",
"'. c #D8A47C",
"]. c #E9A779",
"[. c #E9A16F",
"{. c #365685",
"}. c #375B95",
"|. c #30548F",
" X c #3D639C",
".X c #3865A5",
"XX c #3E70A5",
"oX c #465E85",
"OX c #415F93",
"+X c #4B678D",
"@X c #566B8B",
"#X c #446293",
"$X c #4C6C9D",
"%X c #496895",
"&X c #526A9B",
"*X c #55749B",
"=X c #787D83",
"-X c #4269A4",
";X c #4A6DA6",
":X c #4973A7",
">X c #4A73B2",
",X c #4A78B7",
"<X c #5177B1",
"1X c #4D73AD",
"2X c #4D7CC0",
"3X c #8B8985",
"4X c #899098",
"5X c #BD9A83",
"6X c #A79184",
"7X c #BDB8AE",
"8X c #BCBBB6",
"9X c #ACACA4",
"0X c #C29A80",
"qX c #C9A58A",
"wX c #DAAB89",
"eX c #C9AC97",
"rX c #D9B496",
"tX c #E4AB82",
"yX c #E8B592",
"uX c #C4BCB2",
"iX c #CFB9A8",
"pX c #EABEA2",
"aX c #D5C5AF",
"sX c #CDC4BB",
"dX c #CAC4B7",
"fX c #D2C6B8",
"gX c #ECC2A9",
"hX c #EAC9B4",
"jX c #F9D5BF",
"kX c #CAC7C3",
"lX c #CDD1D7",
"zX c #CCD1D8",
"xX c #FFDDC0",
"cX c #FEE9D7",
/* pixels */
"                                o             X X       +     +               X                                                 ",
"                                      o                                                 X     o                                 ",
"                                  X       X                                 o   o   o                                           ",
"                                                    X       o .   + X o   o             o   o                                   ",
"                                                =                             O o             o                                 ",
"                                            X   X   .     .                           o     o                                   ",
"                                                X 3 2 O X w i w s X   = p 2 =     .   o o +                                     ",
"                                        o X     = J } p r ] X.' } p : S 4.J 2 X     .       o                                   ",
"                                          + . . q d.J.S.r.j o./  . .|  .| 6.} p . . X       O                                   ",
"                                            O * A d.K.S.r.@.O.( {  .@.0.#. . .D ; . .       <                                   ",
"                                          & e S ' o.9.#.x.v.[ [ H.e.@.[ { #.v.K.j ; . .       o                                 ",
"                                        & Z J ' 5./ ` $.D.R.c.c.G.G.c.k.x.m.r...^ h h 2       X                                 ",
"                                      + 3 Z ] ] W #.z.D.I.P.C.Q.F.F.~.~.R.E.b.O._  .} p                                         ",
"                                +       & e A F _ U.qXrXwX_.tX].].(./.[.wXwXrXeX(  .X.7   X                                     ",
"                                o       X q A D _ Z.I.I.!.F.(.(.[.`.`.(.Q.F.I.L.( (  .2   =                                     ",
"                                        . q / _ P ) O.E f.f.M.Q.[.(.B.g.E +.%.O.) Y ..i       <                                 ",
"                                        q h K.v.T n.L.rXpXpXR.P.].`.C.wXhXpXeXZ.) q.Y.P @ . o o                                 ",
"                                  o     6 W 6XZ.T x.).gXxXgXT.I./.Q.^.yXxXcXiX6XT z.0XT .   o o                                 ",
"                                        q / 6XY.U n.L.jXpXK V.~.tX`.N.R q.cXhXD.T c.5X` @   + o                                 ",
"                                      . * d r.e.) G.qXwX~.+.~._.[.(.(.z.c.pXeXT.[ q.v.P @ .                                     ",
"                                  . .   . % ^ { @.n.yXR.I.].^.(.`.(.(._.I.~.R.qXq._ _ d . .                                     ",
"                                  .   .   @ D ^ @.H.L.wX_.l.F.F.Q.F.B.F.^.wX).A.q.' Q q . .   .                                 ",
"                                      .   $ r h o.A.L.R.).P.l.l.C.M.j.C.!._.).Y.@.W e 3 +     +                                 ",
"                                            . . h r.W.H.G.G.g.g.h.+.g.N.N.I.D.A.Q q + o                                         ",
"                                  +           O : D ..b.n.$.G.E.T.T.R.m.h.D.x.^ 5 +   o o                                       ",
"                                  o o   o o     X i G e.v.e.I.).5XqXeXm.h.D.r.0 .     o o o                                     ",
"                                o   o o o   +     X $ / #.e.H.Y.A.H.K.e.....f . . X +   o o                                     ",
"                                o         O e 2 w ; . $ k  .0.t.r.r.r.0./ 6 ; $ ; w 2 O     o o                                 ",
"                                          ; S D i 7 $ . $ / 6.0.9.#.9.] e   . X s D D 7 .     o                                 ",
"                                      . * a D D s 7 6 . p 5.} G ^ Y } X.} o & q g Y ~ k 5 X   o                                 ",
"                                  . . @ 8 j ! P _ j g X s t.6.| { ~ X.w.8.  1 S j Y T I d % .                                   ",
"                                . $ . . i ! ! ! P j h . p J.9XsXiXaXuX3X8.o = s Y I U U f 5 O                                   ",
"                                      ; 6 u ~ u 9 8 g @ s a.7XfXaXaXfX3X6.  = s 5 0 ` u 9 $ $ X                                 ",
"                                      : 5 f ~ P % 9 i . a a.uXfXaXdXfX3X4.  = S % 6 I k l - .                                   ",
"                                o     $ 5 d ! j % 7 g . a a.dXdXfXfXkX3X4.  = S # t d f 8 ; & &                                 ",
"                                o o . @ 6 d ! P % r S . a a.dXdXsXkXkX3X8.  = S 4 t f Q j q +   o                               ",
"                                  o . X 6 f j j % 8 a   p a.uXsXfXfXkX3X4.  * F 4 4 4 U W q + o .                               ",
"                                    . . 8 k 0 d 8 r s . p s.8XdXuXuXkX3X4.. % f 4 ) h.q.5.@ + 3 o                               ",
"                                    . . 8 P 4 5 ! h h . Z s.7XkXkXiXsX3XX.. % u L n.rXrXY.@   .                                 ",
"                                    . @ 8 U # % ! g i . Z s.7XkXsXsXdXJ.| . % u L x.E.W.A..   .                                 ",
"                                . . . t ^ _ U t W W a   Z s.8XkXdXuXkX3X4.  - d L $.m.H.9.- .                                   ",
"                                  . ; A.eXeXK.K.F F Z + H =XkXlXzXlXzX4X7.o & g ! u # - @ .                                     ",
"                                . . # 6XeXY.Q W ] e & + N H ,.y.y.i.i.;.;.b b o F q @ . @ . o o                                 ",
"                                . . @ 0.t.0.4 @ Z n n *.;.=.-.*.&.&.=.-.=.=.*.C B 3 @ @ .   o o                                 ",
"                                . @ . @ # % . . > 7.@XoXoX%XOX}.&X&X&XOXOXOX+X+Xm , o . o   o o                                 ",
"                                      .   . + 1 , i.*X#X|..X}.|.2.3.}.}.-X-X$X{.c > o   + +   o                                 ",
"                                    O   O   o > c 3.;X,X,X2X.X.X&.>.OXXX:XXX:X*XM < o         X                                 ",
"                                o o     . . o > z 3.1X>X.X}.>.&.m m -.|..X,X:X Xv o o   . X                                     ",
"                                          X o > c {.>X-X-X|.&.m < < z 2..X>X>X$Xv <   X   .                                     ",
"                                  o   X       > z 3.<X1X$X{.m , > < z 2.-X>X>X&Xv o     . .                                     ",
"                                o o     . .   o < 1.+X+X@X+XM o   o , 2..X>X>X;Xv o   .     o o                                 ",
"                                o >     . .     o ,.1.1.y.,.1 o   < z 2.-X>X<X*Xv o   .     o o                                 ",
"                                o >   . . . .   o V C V 1 V   =     , 1.$X;X;X%Xv >         o o                                 ",
"                                o o o . . . . . X 1 3 C J J - -   o < 1.%X$X&X+Xc o       o > o o                               ",
"                                o o     . .       X e 8.p.t.7 X . O < ,.u.oX+X+X< o   X     o o                                 ",
"                                o o o   .   X   .     2 s 5   :   + o C ;.*.C *.< o o       o                                   ",
"                                X             X           . . . . . & 3 n N n n o                                               ",
"                                    X               .         . . @ w 4.p.p.:.3 +     .                                         ",
"                                                                .   $ A } 4.A . .   .   . .   .                                 ",
"                                                      o   o o   . . .   . . . . .                                               ",
"                                              o             o     . . . . . .                                                   ",
"                                .       o   o             o   o o     . . . .     o   o                                         ",
"                                .         o           .         o             .     o o o o                                     ",
"                                  . +   o         .             o o     X .       o o o o o                                     "
};
