/* XPM */
static char *_8a6efdc20bd4872b42a83571a6f271eDsD0wQ6kpwKQm9Y2[] = {
/* columns rows colors chars-per-pixel */
"64 64 234 2 ",
"   c #000000",
".  c #0B0201",
"X  c #020A03",
"o  c #0D0905",
"O  c #03020A",
"+  c #04090B",
"@  c #0C0B0B",
"#  c #0A020E",
"$  c #110400",
"%  c #1A0500",
"&  c #130A02",
"*  c #1C0C02",
"=  c #130C09",
"-  c #190D0C",
";  c #091306",
":  c #1B1207",
">  c #14110D",
",  c #1B140C",
"<  c #151507",
"1  c #010313",
"2  c #090412",
"3  c #00041B",
"4  c #00091B",
"5  c #080B13",
"6  c #0D1215",
"7  c #111212",
"8  c #1A1514",
"9  c #1D1914",
"0  c #191A1B",
"q  c #120411",
"w  c #280800",
"e  c #23140A",
"r  c #251C0C",
"t  c #291606",
"y  c #311907",
"u  c #241C14",
"i  c #2B1D14",
"p  c #2A1E1B",
"a  c #221814",
"s  c #321F12",
"d  c #300000",
"f  c #2E2100",
"g  c #32230A",
"h  c #2D2115",
"j  c #2D231A",
"k  c #2B281A",
"l  c #342315",
"z  c #33241A",
"x  c #342A1E",
"c  c #3C2B1B",
"v  c #3A2615",
"b  c #38341C",
"n  c #020B21",
"m  c #000627",
"M  c #00142B",
"N  c #0A1426",
"B  c #000B32",
"V  c #021C3C",
"C  c #001833",
"Z  c #151829",
"A  c #1D2227",
"S  c #092238",
"D  c #1B2938",
"F  c #1F3135",
"G  c #292626",
"H  c #342C23",
"J  c #3A2D23",
"K  c #332A24",
"L  c #383328",
"P  c #283236",
"I  c #323232",
"U  c #3B3835",
"Y  c #422E1C",
"T  c #492D17",
"R  c #48341B",
"E  c #58361A",
"W  c #45250C",
"Q  c #6E3B19",
"!  c #412F25",
"~  c #443325",
"^  c #42342C",
"/  c #4A3A2C",
"(  c #4B3527",
")  c #563B27",
"_  c #463C32",
"`  c #4C3C32",
"'  c #443B36",
"]  c #513E32",
"[  c #643F22",
"{  c #6B401E",
"}  c #5B432C",
"|  c #4D423B",
" . c #4A463C",
".. c #544334",
"X. c #5A463A",
"o. c #52483C",
"O. c #5C4A3C",
"+. c #584637",
"@. c #6A4526",
"#. c #764B29",
"$. c #664B37",
"%. c #6C523C",
"&. c #64513E",
"*. c #74543A",
"=. c #6F623F",
"-. c #041C47",
";. c #042548",
":. c #1A374E",
">. c #072755",
",. c #193655",
"<. c #122953",
"1. c #363949",
"2. c #243959",
"3. c #22324D",
"4. c #0F346B",
"5. c #243A63",
"6. c #20425E",
"7. c #1C4271",
"8. c #234263",
"9. c #33557B",
"0. c #3F4F71",
"q. c #484446",
"w. c #584D45",
"e. c #575752",
"r. c #6D5543",
"t. c #63594E",
"y. c #665747",
"u. c #765C49",
"i. c #685D54",
"p. c #79664A",
"a. c #6D6656",
"s. c #7F6452",
"d. c #776957",
"f. c #746D52",
"g. c #49577C",
"h. c #515C78",
"j. c #776D65",
"k. c #7A7369",
"l. c #7E7777",
"z. c #676B6C",
"x. c #8C562D",
"c. c #8C5E39",
"v. c #875935",
"b. c #915D36",
"n. c #814E23",
"m. c #96633C",
"M. c #8D603F",
"N. c #8A6649",
"B. c #946B4A",
"V. c #856B57",
"C. c #8A755E",
"Z. c #96745A",
"A. c #A36D45",
"S. c #A6734B",
"D. c #B17748",
"F. c #A57957",
"G. c #B87D51",
"H. c #867667",
"J. c #957C64",
"K. c #877D77",
"L. c #A17E64",
"P. c #AB805E",
"I. c #B8855A",
"U. c #9C8775",
"Y. c #928170",
"T. c #A6846A",
"R. c #B78966",
"E. c #B8916E",
"W. c #A68B76",
"Q. c #B58E72",
"!. c #AC9279",
"~. c #BC9778",
"^. c #C4895C",
"/. c #C28353",
"(. c #C58D64",
"). c #CA9269",
"_. c #D69A6C",
"`. c #CA9D7C",
"'. c #C89975",
"]. c #D19B72",
"[. c #E19F6D",
"{. c #DAA379",
"}. c #CFA17F",
"|. c #E6A779",
" X c #395B96",
".X c #355288",
"XX c #3A6394",
"oX c #3762A6",
"OX c #445B98",
"+X c #4F5D85",
"@X c #48638D",
"#X c #47669A",
"$X c #526595",
"%X c #53789C",
"&X c #475EA2",
"*X c #476AA6",
"=X c #4C72AB",
"-X c #4A73A8",
";X c #5675A6",
":X c #496BB7",
">X c #4872B2",
",X c #486EC1",
"<X c #9E9085",
"1X c #B49C87",
"2X c #B9AB9B",
"3X c #B7A596",
"4X c #ABABA8",
"5X c #B3ADA6",
"6X c #BBB9B5",
"7X c #B8B8A9",
"8X c #C59E81",
"9X c #CBA685",
"0X c #C6AB9B",
"qX c #DAB392",
"wX c #D1AD90",
"eX c #E9AD82",
"rX c #E5B795",
"tX c #EDB28A",
"yX c #C6BEB6",
"uX c #E2BFA1",
"iX c #BAC0B4",
"pX c #EEC49C",
"aX c #C5C0AE",
"sX c #CBCABB",
"dX c #C7C5BA",
"fX c #D5CBBA",
"gX c #E5C5AB",
"hX c #EDC4A4",
"jX c #F0CDB1",
"kX c #C9C8C5",
"lX c #D4CCCA",
"zX c #D6D3CE",
"xX c #FFE8CD",
"cX c #FFF5D1",
/* pixels */
"                                                  X @       $ . .     .                                                         ",
"                                                +       . . .             .                                                     ",
"                                                O     X .     o   + 7 +     @                                                   ",
"                                              O   + 7 @ X           + +                                                         ",
"                                              + + A 0   7 I U G I 6 6 G I A 6 O                                                 ",
"                                              @   I I = 8 U  .' U 0 0 U q.G @                                                   ",
"                                            . > u i.K.j.i.X.( / o._ | w.w.' G 8 X                                               ",
"                                      . . . > p H t.H.H.V.%.) $.%.r.&.X.O.i.w.K = @ .                                           ",
"                                    +       j J X.} %.) #.R.{ v.R.v.@.E } r.1Xw.j >     +     O                                 ",
"                                      X > , H / ..E @.B.F.G.x.D.I.A.b.c.B.N.u...J L u +                                         ",
"                                +   X 7 G L ^ +.} $.*.F.I.^.^././.D.^.].R.T.*.Y ~ o.U o     O                                   ",
"                                        > p u ~ T L.qXrX{._.eX_.|.[.|.{.].qX9XC.~ o.L                                           ",
"                                +   X X o , z / ) *.N.N.c.S.(.).{.|.G.b.B.B.N.r.~ ` z   .     X                                 ",
"                                          & _ ..Y ) $.[ E #.A.{.eX).m.#.@.E @.) ~ o.L   o                                       ",
"                                    o . 9 p k.i.~ d.1XgXgXrX~.'.wXR.}.hXuXgX!.r.~ d.t.  .   .                                   ",
"                                    . . j H <Xd.Y C.3XxXjX8XF.`.rX).P.E.wXxX!.p.Y K.H..   . o                                   ",
"                                O     . j z W.V.W N.9XcX}.d S.{.tX^.m.d c.cX~.*.T H.V.$ .                                       ",
"                                O       : e s.r.@.F.`.rX'.x.)._.|.|.I.n.S.pX9XB.) s.r.. .   O                                   ",
"                                        . $ / $.) L.9XR.R.'.].).).{.].(.I.E.~.Z.$.$./ . .   O                                   ",
"                                          . u ..%.Z.~.9X`.R.b.(.(.S.S.R.~.9X1XV.$.( i . .   O                                   ",
"                                          . & J c s.T.~.~.R.v.m.A.b.m.P.T.!.U.y./ i -                                           ",
"                                              , j H.U.T.Z.Z.M.Q Q c.c.Z.T.J.U.t.u = .                                           ",
"                                              . = H O.W.J.N.R.`.E.`.F.V.J.H.w., = o           .                                 ",
"                                        O   @ X   - ~ d.r.*.T.Q.Q.Q.!.$.&.a.9 > o =                                             ",
"                                  .   X       @ o . & ~ ] u.C.J.L.Z.V.r...x . @ = @     .     .                                 ",
"                                          X   @ 9 , & e s +.r.s.u.s.u.X.J ,     . 9 8     .                                     ",
"                                . .     @ @ 8 j K a $ . : ....O.X.$.../ u   o - $ p G - .                                       ",
"                                    o   = o p L ^ x i & J t.J h s c _ a.o.. j H J _ | _ j o   @                                 ",
"                                    o . u u J ` ! l e . h a.t.e.w.t.t.k.o.  r l ~ ~ ] ` j .   .                                 ",
"                                @ . . = x J ! ~ / Y s . j Y.6XzXlXlX5Xk._ . v Y ( ( / ` z : o .                                 ",
"                                      = i l t t v v i . j k.6XkXkXlX5Xj._ . s v T y y v u &                                     ",
"                                  = = i i s w t ( c t . h k.dXkXkXkX5Xj.o.. t Y ( % % c z .   .                                 ",
"                                . . i ^ c l % s / i e $ r H.aXsXdXkX4Xk.' . z J / * & J a $   .                                 ",
"                                . . e ^ z l * i J _ K   : k.7XsXdXkX4Xk.' . j j J & o H u & . .                                 ",
"                                  . , L x z e e J K ,   I l.4XlXdXlX5Xk.` . z i z & o H u =   .                                 ",
"                                X X < L L b r e $ i p   G K.6XkXdXfX2Xk.` . z h j : < K 9 >   +                                 ",
"                                X ; ; k b b g c ( t e . p l.yXdXyXfX2Xd./ . z i u : & u > @   O                                 ",
"                                + X X < l R g %.0X) * $ ^ k.6XsXaXfX2Xj.` . p a & &   o   X O O                                 ",
"                                O   . . g R y N.gXW.%.% l j.aXsXaXfX5Xj. .  G 9   .   .     O O                                 ",
"                                O   & . v R w Z.gX0XV.$ x k.7XiX6XkX4Xz.1.O A 0   o   .   + O O                                 ",
"                                O # . $ t $ w $.0X0Xj.- 7 A P F F D 3.S M M D N                                                 ",
"                                  #   . $ . $ J w.q.1.Z C M V C S M V V V C S n O                                               ",
"                                  +           7 1 n <.<.>.>.4.>.V ;.>.>.>.>.,.C 1                                               ",
"                                            + 1 3 2.+XOX X*XoX7.;.9.XXXX XXX@X,.1 O                                             ",
"                                      X     + 1 n 0.$X.X X*X.X4.B 2.9.XXXX#X#X:.1 O                                             ",
"                                O     X     O 1 1 2.g.+X$X.X-.B m V ,.-X=X=X;X2.1 O .                                           ",
"                                X             O 5 Z N N n N 4 N 1 m -.;X=X-X%X2.1 O .         O                                 ",
"                                          .           @   @ +   1 m <.;X#X*X;X2.1 O .                                           ",
"                                                  X X X X   O 1 3 5.#X*X=X-X%X:.1 1 O O O                                       ",
"                                                              O 3 5.#X=X>X-X%X:.1 1 2 O O                                       ",
"                                                              O 4 8.#X=X>X-X%X:.O O   .                                         ",
"                                                              O 1 6.#X>X>X>X;X:.O X   .                                         ",
"                                                              O 4 8.*X:X,X:X;X2.1 O   . .                                       ",
"                                                              O 4 8.*X:X:X:X;X5.1 + . . . O O O                                 ",
"                                                              O 3 2.$X#X&XOX$X3.3 2 O     O O O                                 ",
"                                                                1 1.h.h.g.g.+XD 1 2                                             ",
"                                                                  7 I z.z.e.G 7                                                 ",
"                                                                  x y.i.f.f.o.u                                                 ",
"                                                                - X.C.=.p.f.f._ .                                               ",
"                                                                . e c f f f l e . O                                             ",
"                                                                O . . $ . . . q 2 2 O       O O                                 ",
"                                                                O     .   .   O 2 O         O O                                 ",
"                                                                          . O O O           O O                                 ",
"                                                                O   X   .   O O             O 2                                 "
};
