/* XPM */
static char *_5b0e5f9f5844bf7d0bd0fc30b1397f65w9fQT8AUtM5dexO[] = {
/* columns rows colors chars-per-pixel */
"64 64 233 2 ",
"   c #000001",
".  c #0B0302",
"X  c #030A04",
"o  c #0B0A05",
"O  c #030309",
"+  c #09040A",
"@  c #040A0B",
"#  c #0C0B0B",
"$  c #130401",
"%  c #1A0401",
"&  c #130C03",
"*  c #1C0C03",
"=  c #120D0A",
"-  c #1B0D09",
";  c #17030C",
":  c #151102",
">  c #1B1304",
",  c #14110C",
"<  c #1C130B",
"1  c #1C1A0F",
"2  c #0C0B11",
"3  c #030817",
"4  c #120D12",
"5  c #140815",
"6  c #0C1314",
"7  c #03121B",
"8  c #07121B",
"9  c #141312",
"0  c #1B1512",
"q  c #1E1A14",
"w  c #13141E",
"e  c #1B191A",
"r  c #15181E",
"t  c #220C00",
"y  c #260900",
"u  c #241304",
"i  c #2C1401",
"p  c #23140B",
"a  c #2A160C",
"s  c #2B1B0D",
"d  c #2B1A06",
"f  c #331B01",
"g  c #311C0B",
"h  c #381A03",
"j  c #270B11",
"k  c #231B14",
"l  c #2C1D13",
"z  c #241C1B",
"x  c #251616",
"c  c #351E15",
"v  c #35200C",
"b  c #3C240C",
"n  c #3C280D",
"m  c #2D2117",
"M  c #24221D",
"N  c #2C241C",
"B  c #242115",
"V  c #342214",
"C  c #3A2314",
"Z  c #34251B",
"A  c #3C261B",
"S  c #352B1D",
"D  c #3B2C1D",
"F  c #3C2810",
"G  c #020C27",
"H  c #081626",
"J  c #141B25",
"K  c #171B25",
"L  c #031433",
"P  c #081D3B",
"I  c #181A32",
"U  c #201924",
"Y  c #211D36",
"T  c #192236",
"R  c #1E2629",
"E  c #2E2927",
"W  c #342B24",
"Q  c #3B2C22",
"!  c #362928",
"~  c #3C3126",
"^  c #3C332A",
"/  c #353025",
"(  c #292B33",
")  c #373438",
"_  c #422D1C",
"`  c #412816",
"'  c #4C331D",
"]  c #47331B",
"[  c #5F3F19",
"{  c #653D1A",
"}  c #452D23",
"|  c #443224",
" . c #4A3523",
".. c #4B3825",
"X. c #47382B",
"o. c #553A28",
"O. c #433A31",
"+. c #4B3C33",
"@. c #423137",
"#. c #513F32",
"$. c #613E22",
"%. c #5A442A",
"&. c #46413D",
"*. c #594433",
"=. c #5E4C34",
"-. c #54493D",
";. c #5B4A3A",
":. c #544436",
">. c #67472A",
",. c #634A33",
"<. c #614D3D",
"1. c #6C543C",
"2. c #775537",
"3. c #74532A",
"4. c #021B47",
"5. c #001F53",
"6. c #0D254C",
"7. c #172646",
"8. c #1E314F",
"9. c #072953",
"0. c #172B52",
"q. c #04395D",
"w. c #173157",
"e. c #29344A",
"r. c #313C5A",
"t. c #313A52",
"y. c #082C63",
"u. c #083569",
"i. c #1B3968",
"p. c #0A3E73",
"a. c #193F70",
"s. c #142F64",
"d. c #293E65",
"f. c #303F66",
"g. c #39495A",
"h. c #16436E",
"j. c #3A537A",
"k. c #34476F",
"l. c #49484D",
"z. c #524B42",
"x. c #554C44",
"c. c #5A534C",
"v. c #4C4C56",
"b. c #504E51",
"n. c #5D5A55",
"m. c #664E46",
"M. c #6B5B4C",
"N. c #675846",
"B. c #735B44",
"V. c #7B5D44",
"C. c #725C4B",
"Z. c #795B47",
"A. c #625E54",
"S. c #695850",
"D. c #76614E",
"F. c #7D654C",
"G. c #6D6458",
"H. c #7C6453",
"J. c #7C6A5B",
"K. c #786756",
"L. c #6B604C",
"P. c #535C6D",
"I. c #4B5A70",
"U. c #5E6B7E",
"Y. c #7B6C62",
"T. c #7C7366",
"R. c #666A75",
"E. c #636A7C",
"W. c #83593E",
"Q. c #8C6238",
"!. c #875F42",
"~. c #876749",
"^. c #926A4A",
"/. c #976845",
"(. c #846B57",
"). c #856B58",
"_. c #85725E",
"`. c #8D7357",
"'. c #947453",
"]. c #9C7A5E",
"[. c #95765B",
"{. c #9A7251",
"}. c #A06F51",
"|. c #A77855",
" X c #AB7350",
".X c #806E62",
"XX c #8A7868",
"oX c #937A64",
"OX c #977A64",
"+X c #997B70",
"@X c #A67D62",
"#X c #A07E74",
"$X c #B5835D",
"%X c #97816F",
"&X c #8B8378",
"*X c #95897D",
"=X c #978677",
"-X c #A58B6D",
";X c #AD8D6B",
":X c #A68469",
">X c #B98C6A",
",X c #A68B76",
"<X c #AB917B",
"1X c #B79479",
"2X c #C88E66",
"3X c #C89C79",
"4X c #D99F78",
"5X c #CA936A",
"6X c #D6A074",
"7X c #E5A77C",
"8X c #1A4B8E",
"9X c #34578A",
"0X c #3762AB",
"qX c #445B98",
"wX c #48658C",
"eX c #586D87",
"rX c #4A6B9A",
"tX c #60748F",
"yX c #4565A7",
"uX c #4F70A6",
"iX c #4264B6",
"pX c #5576AB",
"aX c #4B71C2",
"sX c #9A8982",
"dX c #AE9687",
"fX c #C8A686",
"gX c #DAAD8F",
"hX c #D3AD95",
"jX c #D3B697",
"kX c #C7A994",
"lX c #F4B68E",
"zX c #EAB18F",
"xX c #D1C7BB",
/* pixels */
"                                . . .           O     O       . O O O O O O                                                     ",
"                                . . .             @       o .     O O       @                                                   ",
"                                                  @               + @ 2 O                                                       ",
"                                              @ @ O @ e e # . # = # 4 # # #                                                     ",
"                                          . # 9 # . o e M 0 # o z & 0 . & z   . o                                               ",
"                                  O       o , k k N N 0 0 E ) &.l Z :.Q k k o , , o                                             ",
"                                          = m W Q | S p k O.x.x.a } #.+.Q k - . k &                                             ",
"                                      . = k ~ #.J.N.;.m..XXXG.+.J.J.*.M.XXY.Y.^ k &           O                                 ",
"                                  @   , . Q ;.o.oXoX).).C.H.D.H.(.Z.*.D.*X=X*X-.Z = & , o                                       ",
"                                      k l X.o. .(.<X1X(.' o.F.<XB.o.,.B.=X%XXXx.O.k = , o                                       ",
"                                  #   o * a *.oXOX:X1X:X!.~.2.~.,.B.OX_.C._.K.&X+.k 0 0 o                                       ",
"                                        p l m.).oX`.].].:X3X^.2.2.Z.-X(.<.*.<.*X~ k k z #                                       ",
"                                          . k .  .1.V.$.>.>X>X|.V.o.Z.F.<X*.X.:.^ k , q #                                       ",
"                                    #     o E $ D ..' >.^.3X>X^.~.B...=.C.;.;.N.-.k o = = . O                                   ",
"                                #         . 0 o ~ % $ V.fXfX{.{ [._.] _ g | ;.&Xz.k . = # O                                     ",
"                                  O   # # , c.dXX.i % '.gX3X5X$X`.>.1.F.<X..A +.O.< o 9 o                                       ",
"                                @     0 p <.oXhX{.}. X4X4X7X5X5X/.[ 2.].1Xo.V S.z.q   # #     o                                 ",
"                                  @ # . V ,XhXgXgXlXlXlX7X7X7X6XQ.3.2.^.dXo.A sXz.M # 9 #                                       ",
"                                @     , l o.Z.@X}./.}. X2X2X$X|.{.'.:X-X,Xo.A +.! 9 X @ @                                       ",
"                                O     = . % h o.W.!.!./.|.>X$X/.'.[.-X,X_.A a . ,                                               ",
"                                  O O     p g y `.jXhX@XW.1X1X[.F.=.b o.C.c $ $ = .                                             ",
"                                @       . o * $ H.kXkX@X2.-X-XOXJ.=...:.X.p - = , . O O     O                                   ",
"                                  O @     o l * M.).H.(.D.oXoX_.M.G.*XJ.* . x z #           @                                   ",
"                                @     O o   q k Z m s l X.M.K.M.-.S N p . % . q 9     O                                         ",
"                                            o o 0     < ~ -.G.N.O.1 > . . < 0 . , .   O                                         ",
"                                            . . o o 0 z & N ^ / N o & $ - Z N & , o X O     O                                   ",
"                                            O O       = . A.A.z.B . o & p ~ ^ N , o # #   O O                                   ",
"                                                @ O . q & &XT.A.k & > p l Q Q ^ k & o # o O O O                                 ",
"                                            O         0   G.^ & & & m Z V V V S S , . , #     O                                 ",
"                                            O O O @ + 0 0 c.m   & < Z l a g V | S : . , #   O O                                 ",
"                                                  4 4 #   & & & l m V u t g C ..s : & , o   O                                   ",
"                                                # 9 o . < < l l Z D A u u V V D > > < , .   +                                   ",
"                                                  / . o * a A c } | V s * l V S > : B .                                         ",
"                                                q & X.V $ C A } _ | V a % s Z ~ > : <     @ @ O                                 ",
"                                                1 o S u * C ` } _ _ g u * l S X.- z E .                                         ",
"                                            O . o k M.D t g ` _  .] v d u V V Q $ z E 9     X                                   ",
"                                            O @ 9 W xXT.$ v A  .F n i i t f C } x x 5 # .                                       ",
"                                          O O O # ^ *X-.% V _ _ ' ' b f t i b o.j ; + 4 #                                       ",
"                                        O O O O   N o $ u s D D | ` i f i h h ` c j . 5 #   X X                                 ",
"                                        O   O     . . < & p m +.X.A v %.~.;X;X:X#Xm.; ;                                         ",
"                                          O O   +   . 0 & z W ^ @.! V ,.-XfXfXfXfX+X$ -                                         ",
"                                                      0 . 2 9 w 5 U $ % ` -XjXjXjX%X% % . o                                     ",
"                                                    . e 2 J K I I Y w e - ;.N.1.B.%.% $ . . O                                   ",
"                                                    O K 8 T e.r.7.L G I O 2 .   . . % . .   O 2                                 ",
"                                                      8 G 7.r.f.6.w.j.k.f.r.e.3 6   .     + O O                                 ",
"                                                    O H G 6.d.d.4.h.pXuXpXqX9X6.T @       + + O                                 ",
"                                  O                 @ H G 6.i.a.9.q.9X0XaXiXyXqX6.G @ X     +                                   ",
"                                                    O 7 G 4.s.u.q.u.p.8X0XiXyXyXj.e.7 6     O                                   ",
"                                                      7 3 P 9.y.h.p.4.u.yXuXrXwXeXg.7 r X                                       ",
"                                        O O           6 7 P 9.y.y.u.9.h.rXwXeXeXeXg.J R 6                                       ",
"                                        O O           @ 3 L 6.w.i.i.4.i.wXeXtXeXI.e.w K , .                                     ",
"                                        O O         o 6 8 P 6.0.d.w.L 8.I.eXU.P.) r @ = o   .                                   ",
"                                        O           . @ 8 H 7.8.e.t.g.P.E.R.R.R.( 9 o o o                                       ",
"                                                , , M M K J 7.7.e.t.v.v.l.l.l.b.E = & . . . .                                   ",
"                                                & N c.n.l.( T H U 9 4 + o # # o z   o   .                                       ",
"                                                . k z.&.E 2 J K z = & . . = o   0   .         O                                 ",
"                                                  o $ o         o o o o .                                                       ",
"                                                  . o o           . .                                                           ",
"                                                  . . .                                                                         ",
"                                O O                 . .                                                                         ",
"                                O O                                                                                             ",
"                                O O                 O O                                                                         ",
"                                O O               O   O                                                                         ",
"                                O O             O O                                                                             "
};
