/* XPM */
static char *unnamed_removebg_preview_1__1__1_1691508545[] = {
/* columns rows colors chars-per-pixel */
"64 64 229 2 ",
"   c #000001",
".  c #0A0301",
"X  c #040904",
"o  c #0C0A05",
"O  c #020309",
"+  c #08060B",
"@  c #05090C",
"#  c #0C0B0B",
"$  c #120500",
"%  c #130B04",
"&  c #1B0C03",
"*  c #13040A",
"=  c #130D0A",
"-  c #1B0E0A",
";  c #190707",
":  c #151106",
">  c #1C1105",
",  c #14120B",
"<  c #1B130B",
"1  c #1D190E",
"2  c #020B15",
"3  c #0B0E11",
"4  c #030C1B",
"5  c #0E0A1B",
"6  c #120D11",
"7  c #0C1215",
"8  c #0B141B",
"9  c #06101C",
"0  c #141413",
"q  c #1B1512",
"w  c #1D1A13",
"e  c #131519",
"r  c #1B1B1B",
"t  c #0B100C",
"y  c #210600",
"u  c #230C06",
"i  c #251503",
"p  c #2A1302",
"a  c #23160D",
"s  c #251A0D",
"d  c #2C1C0B",
"f  c #2B170A",
"g  c #311200",
"h  c #331B03",
"j  c #381D08",
"k  c #221512",
"l  c #241C13",
"z  c #2A1D14",
"x  c #281C1B",
"c  c #331E12",
"v  c #2D200F",
"b  c #3A250D",
"n  c #2D2315",
"m  c #26231B",
"M  c #2C251B",
"N  c #262314",
"B  c #332414",
"V  c #3C2414",
"C  c #32251B",
"Z  c #332A1E",
"A  c #3B2B1C",
"S  c #392718",
"D  c #38301D",
"F  c #000C24",
"G  c #000F2F",
"H  c #01112A",
"J  c #091525",
"K  c #151B25",
"L  c #000C31",
"P  c #051838",
"I  c #101C32",
"U  c #0E2036",
"Y  c #1B2435",
"T  c #172538",
"R  c #14222F",
"E  c #252322",
"W  c #2D2520",
"Q  c #2B2923",
"!  c #262928",
"~  c #332C24",
"^  c #3C2D24",
"/  c #342D2B",
"(  c #363124",
")  c #3D342B",
"_  c #373227",
"`  c #262A35",
"'  c #332F30",
"]  c #32333C",
"[  c #3A3731",
"{  c #4A270B",
"}  c #542A03",
"|  c #422716",
" . c #442815",
".. c #422E1F",
"X. c #4A2E1D",
"o. c #4B2B16",
"O. c #4A341F",
"+. c #573315",
"@. c #6A3D1E",
"#. c #423223",
"$. c #45392D",
"%. c #4C3B2C",
"&. c #493529",
"*. c #543D2B",
"=. c #543A24",
"-. c #443B31",
";. c #4B3E34",
":. c #433E38",
">. c #543D32",
",. c #4E4238",
"<. c #554336",
"1. c #5C4B35",
"2. c #55473A",
"3. c #54452E",
"4. c #654429",
"5. c #664B36",
"6. c #724F33",
"7. c #6D533D",
"8. c #64503D",
"9. c #775237",
"0. c #704427",
"q. c #031D46",
"w. c #08235C",
"e. c #0A2654",
"r. c #152E58",
"t. c #1B345C",
"y. c #172A47",
"u. c #27364A",
"i. c #263958",
"p. c #042A67",
"a. c #08316A",
"s. c #163568",
"d. c #0A3475",
"f. c #153D78",
"g. c #154075",
"h. c #20406F",
"j. c #334B70",
"k. c #4C4943",
"l. c #554E43",
"z. c #5E4E43",
"x. c #5A4F49",
"c. c #5C5243",
"v. c #444B58",
"b. c #604E42",
"n. c #645345",
"m. c #635A4A",
"M. c #6A5946",
"N. c #7A5C44",
"B. c #725C4C",
"V. c #755944",
"C. c #6B5C54",
"Z. c #615D54",
"A. c #696255",
"S. c #7A6858",
"D. c #7E624C",
"F. c #585B65",
"G. c #445979",
"H. c #505F76",
"J. c #586579",
"K. c #5D616C",
"L. c #69686A",
"P. c #796C68",
"I. c #646A76",
"U. c #865A39",
"Y. c #835F46",
"T. c #8B6243",
"R. c #886649",
"E. c #876347",
"W. c #986B4B",
"Q. c #8D6C52",
"!. c #856954",
"~. c #926E53",
"^. c #88715F",
"/. c #957359",
"(. c #A36D47",
"). c #AC7853",
"_. c #A97A58",
"`. c #A6724D",
"'. c #8C7663",
"]. c #867766",
"[. c #937E6B",
"{. c #967C67",
"}. c #907E74",
"|. c #A37E61",
" X c #B1835F",
".X c #96826E",
"XX c #8D8171",
"oX c #948573",
"OX c #968A78",
"+X c #A2836C",
"@X c #AB876A",
"#X c #B18565",
"$X c #B18B6D",
"%X c #BC8C66",
"&X c #A68A76",
"*X c #B9967A",
"=X c #C49978",
"-X c #D49C74",
";X c #CA926B",
":X c #DCA37B",
">X c #E0A377",
",X c #144280",
"<X c #315F9B",
"1X c #38588A",
"2X c #38609D",
"3X c #2C5BA3",
"4X c #2F60AC",
"5X c #3B68A8",
"6X c #3F73BE",
"7X c #546B8A",
"8X c #486A98",
"9X c #507099",
"0X c #63748E",
"qX c #496CA4",
"wX c #4575B9",
"eX c #5177AA",
"rX c #9B9692",
"tX c #B79C86",
"yX c #A99592",
"uX c #C39F85",
"iX c #CAA489",
"pX c #C3A691",
"aX c #D5AE93",
"sX c #D7A888",
"dX c #E7AB82",
"fX c #E0B290",
"gX c #F4BA92",
"hX c #F2C09D",
"jX c #FFCBA5",
/* pixels */
"                                  . .         .               + O O O O O O O                                                   ",
"                                  .   . .   . X       X X         O   O O     +                                                 ",
"                                X                 + O     + @   + O     + O           .                                         ",
"                                                . X X   . X @ +   + # # @     +                                                 ",
"                                  O       3 0 3 e @ t E E = @ w   , , X . . .                                                   ",
"                                    O     # q 0 w w 0 q x Q ~ W 1 M Z 1 1 1 , =                                                 ",
"                                      . X o w / W ~ x > M 2.2.^ o Z ,.M > X X % . . .         O                                 ",
"                                .     = q w ^ l.C.,.&.n.S.S.n.2.M.m.8.m.A.c.~ : o X .         O                                 ",
"                                    . % w -.^ P..XS.M.{.^.^.R.7.^.M.M.OXOXXX,.w , q #   O     O                                 ",
"                                . . . % ^ ;.%.b.&XtX&X=.+.4./.Q.1.3.1.OXXXoXm.) l m , X O   O                                   ",
"                                  . . . ^ A n.'..X&X.XE.6.9.U.R.=.M..XS.S.S.].;.k w = .     O                                   ",
"                                  . . . % a b.[.&X+X/.$X$X$X9.4.7.S..X1.8.b.rX,.< - o     O   O                                 ",
"                                      . . a z %.8.7.V.4.+X=X#XE.4.M.B..X8.3.n.$.m q = .   O                                     ",
"                                O     X   % $ - 1.*.6.N.$X=X_.R.N.7.3.^.2.3.b.-.W k = + O   O O                                 ",
"                                O     X   . M ^ f i 5.tXuX*XU.R.$X7.D O.%.<.XXx.M - * o .   O                                   ",
"                                O @ O + , - b.n.| 6.aXaXiXiX#XW.D.N.6.^.3.B b.;.W - # o     O                                   ",
"                                  + . x &.*.|.$XU.hXjX-XdX;X:X`.0.9.Q.tX1.d 1.,.m w o X X                                       ",
"                                @   . - B.tXaXsX:XgXdX>XdX>X-X(.@.4.~.tXO.3.XXZ.m 1 o X                                         ",
"                                O + . x >.5./.#X).`.).;X-X-X;X).R./.@XtX=.B &.,.1 , X                                           ",
"                                  3   - c y o.9.T.U.W.`. X XW.T./.$X.X{...d . 1 X X     X                                       ",
"                                    X   ; c h 4.pXiX*XT.$XuX_.Q.!.&.*.B.S a $ 1           X                                     ",
"                                O   + . . $ & %.uXpX*X5..X*X.X!.V.>.>.>.s $ . w   X                                             ",
"                                @ O   # . . u A ].'.^.M.'..X'.B.b.}.P.f . - w X   X X                                           ",
"                                    3     : . M Z s d *.n.A.C.z.;.c z ; . . m .             O                                   ",
"                                  O         o : : . < M ,.l.A.;.x z $ % . = % = X .     @   O +                                 ",
"                                  O X         o t o l w Q / [ m k ; . - x ~ < . o # X                                           ",
"                                  X X         X     0 , [ A.x.[ $ . . l ~ -.m , o # # .   O O                                   ",
"                                                  X 0 r L.rXZ._ . & s M ~ _ ~ M : = = X     #                                   ",
"                                                    @ # k.P.W . o s M n n M ( _ l : = o     O                                   ",
"                                              O X r r q Q :.< & > d n i d n D n s : o o                                         ",
"                                            O     0 # = % = . a B d v & v Z D v $ : o . .                                       ",
"                                .         X     X # . = < z z A ..S v % s n D N . l <   .                                       ",
"                                X       X       t : % . d v V | X.V d % s Q [ w . k . $ .                                       ",
"                                X     X         1 M S & d V X. .X.| c > m m Q , * k . . .     X                                 ",
"                                            . . o N C & d j o.X.X.V f > N N _ N . ; . .       X                                 ",
"                                            O = % c.z.u p j o.X.&.S f & i d D l ; - . O   @ X                                   ",
"                                    .       . * W yXyXf p V  .X...A j p h { O.h & ; 6 O     X                                   ",
"                                        .   . * x P.C.u c V V #.#.B i y g j { p $ . 6 O O X   X                                 ",
"                                      . . . . . * * ; ; c c S ) $.C h b } } +.{ V $ 3 @ @                                       ",
"                                        O   . O . * x - % n 3.Z ( C 3./.%X%X=X#X'.^ 6   O                                       ",
"                                  X           X O . 0 q q x m Q ~ M ..~.=XfXsXuXtX>.+ +     o                                   ",
"                                X   X             O e 3 @ e 8 7 # 0 $ j |.pXuXpXyX&.. . .   .                                   ",
"                                    X           X O 8 8 J R U U K e + . ..&.>.>.>.s .       O                                   ",
"                                  X                 7 J I u.i.u.U T R ` 5 + . . . . .     . .                                   ",
"                              O                   X 2 F P i.t.r.G j.j.j.G.i.F J 2 .   X X                                       ",
"                                O O         X     O 2 F q.i.s.p.q.j.eXqXeX1Xh.y.4 @           O                                 ",
"                                O O   O   . .   X   5 F P r.s.s.e.a.5X6X4X3X5Xs.H 8 t X     @ @                                 ",
"                                  O         .       5 F L w.w.s.g.a.d.5XwXwX2X1XG.Y @ X X     O                                 ",
"                                .     O O           8 4 L e.p.d.,Xp.p.<XeX8X8XH.J.` 7 ,     .                                   ",
"                                        O O O   #   O 4 I q.w.h.d.a.f.8X9X7X0XH.F.` r q X                                       ",
"                                .     O O O       X e 8 G P e.s.h.q.e.G.7X7XI.v.u.r e 6     X                                   ",
"                                        O O O     t r 7 J I r.r.h.y.u.H.J.I.I.] e = # X     @                                   ",
"                                .     O O O   X , o X 7 K U y.i.u.v.K.L.F.L.L.' 0 = o     O O                                   ",
"                                              X w _ [ [ ! K y.` ' / ' [ / / $.~ = % .     O O                                   ",
"                                      O       o w 2.Z.k.! K Y K E : . . % . $ < . .       O O X                                 ",
"                                .   O   O   X o 1 Z N N t X 2 @ X W l - < < 1 .   .       O   O                                 ",
"                                                o . $ o = t t 7 0 # X O .   .     .                                             ",
"                                .               . . . . o o X X X                                                               ",
"                                                  . . . .         X O   O                                                       ",
"                                .               .   . .           O O   O                                                       ",
"                                .                 O . .           O O       O     O                                             ",
"                                        X           O   O                   O                                                   ",
"                                  .               O O O           . .                 O O                                       ",
"                                  .     X       O O O O O       . . . . .   .   O       O                                       "
};
