/* XPM */
static char *_687c532c217411ba85a6e0e3c664799Qc2kuMo9EHX5dfUZ[] = {
/* columns rows colors chars-per-pixel */
"64 64 229 2 ",
"   c #010001",
".  c #0A0201",
"X  c #040904",
"o  c #0B0904",
"O  c #01020A",
"+  c #09030B",
"@  c #02090B",
"#  c #0C0A0A",
"$  c #120400",
"%  c #140B03",
"&  c #190C02",
"*  c #130C0B",
"=  c #160706",
"-  c #0F100B",
";  c #1C1102",
":  c #1B130B",
">  c #151107",
",  c #010312",
"<  c #020914",
"1  c #0D0D12",
"2  c #00031A",
"3  c #00091C",
"4  c #0B0716",
"5  c #0A1215",
"6  c #0E131B",
"7  c #071313",
"8  c #1B1512",
"9  c #1C1914",
"0  c #13151A",
"q  c #130B16",
"w  c #220401",
"e  c #290C00",
"r  c #250A03",
"t  c #3C0F00",
"y  c #221404",
"u  c #291604",
"i  c #241A04",
"p  c #2C1A01",
"a  c #22150B",
"s  c #24180C",
"d  c #291B0A",
"f  c #371909",
"g  c #231B14",
"h  c #2A1C13",
"j  c #251C19",
"k  c #261C19",
"l  c #311C17",
"z  c #3D240D",
"x  c #36210E",
"c  c #25211A",
"v  c #2B221B",
"b  c #2F2B1F",
"n  c #332412",
"m  c #3A2416",
"M  c #32261D",
"N  c #322A1E",
"B  c #3C2B1D",
"V  c #372A15",
"C  c #38321A",
"Z  c #010C23",
"A  c #000B2B",
"S  c #000322",
"D  c #041224",
"F  c #04142E",
"G  c #0A132C",
"H  c #0B1528",
"J  c #131B2B",
"K  c #161823",
"L  c #021231",
"P  c #071D37",
"I  c #121F36",
"U  c #18212C",
"Y  c #18263A",
"T  c #2A2522",
"R  c #2C2A24",
"E  c #25252A",
"W  c #352B23",
"Q  c #3A2E23",
"!  c #393326",
"~  c #3B3532",
"^  c #202A34",
"/  c #401E12",
"(  c #411B08",
")  c #442608",
"_  c #42310E",
"`  c #422C1A",
"'  c #482C17",
"]  c #453014",
"[  c #483619",
"{  c #58351F",
"}  c #422925",
"|  c #472F27",
" . c #433324",
".. c #49322B",
"X. c #483827",
"o. c #533A2A",
"O. c #543927",
"+. c #453A33",
"@. c #463C35",
"#. c #523F31",
"$. c #5B432B",
"%. c #49423A",
"&. c #564434",
"*. c #5A4935",
"=. c #5C4B3D",
"-. c #554638",
";. c #63452C",
":. c #6B462B",
">. c #754A2D",
",. c #614D33",
"<. c #694B36",
"1. c #714C36",
"2. c #6A523B",
"3. c #76543A",
"4. c #0D1E44",
"5. c #051D4C",
"6. c #0C2749",
"7. c #132544",
"8. c #122B4B",
"9. c #162846",
"0. c #192A56",
"q. c #1B3359",
"w. c #203145",
"e. c #23355A",
"r. c #22395A",
"t. c #14366B",
"y. c #213564",
"u. c #253A6B",
"i. c #413C40",
"p. c #3F4551",
"a. c #2D446B",
"s. c #2B4B79",
"d. c #374B77",
"f. c #5B4E45",
"g. c #544D45",
"h. c #53544F",
"j. c #665646",
"k. c #755C45",
"l. c #7C5B46",
"z. c #785A48",
"x. c #675952",
"c. c #694D49",
"v. c #77624A",
"b. c #68645C",
"n. c #7B6D5B",
"m. c #786654",
"M. c #7D7159",
"N. c #404D6F",
"B. c #48566B",
"V. c #4E5B6C",
"C. c #7B6D62",
"Z. c #767472",
"A. c #80563E",
"S. c #835B42",
"D. c #885E45",
"F. c #83644C",
"G. c #8B654A",
"H. c #956848",
"J. c #9F714F",
"K. c #826D5B",
"L. c #896C57",
"P. c #926F57",
"I. c #89725C",
"U. c #99755B",
"Y. c #927055",
"T. c #A77B5B",
"R. c #A3704D",
"E. c #847265",
"W. c #897B6B",
"Q. c #947B64",
"!. c #947D6B",
"~. c #977A67",
"^. c #907C71",
"/. c #876E69",
"(. c #99826C",
"). c #8C8378",
"_. c #9C8673",
"`. c #99897A",
"'. c #A3846D",
"]. c #AD886D",
"[. c #A6886F",
"{. c #BC8C6C",
"}. c #B38569",
"|. c #A88C73",
" X c #A88A75",
".X c #B58D72",
"XX c #B3917A",
"oX c #B79A7A",
"OX c #AB937B",
"+X c #C28D6A",
"@X c #C69677",
"#X c #D19C7A",
"$X c #1F5095",
"%X c #365B95",
"&X c #2E528A",
"*X c #3D639C",
"=X c #3E64A8",
"-X c #3B67B2",
";X c #3E72BE",
":X c #495E8A",
">X c #415F9D",
",X c #406089",
"<X c #476795",
"1X c #556A9A",
"2X c #436BAA",
"3X c #4467A6",
"4X c #4C71A7",
"5X c #486EB4",
"6X c #4974BD",
"7X c #5370AA",
"8X c #988F80",
"9X c #AD9B87",
"0X c #B99B83",
"qX c #B69785",
"wX c #B59F91",
"eX c #B8A38E",
"rX c #BCA696",
"tX c #C59E83",
"yX c #C8A689",
"uX c #D4A284",
"iX c #DBA988",
"pX c #C8AA95",
"aX c #DAAA91",
"sX c #E6B396",
"dX c #E1AA8B",
"fX c #CCB8A7",
"gX c #D7BCA1",
"hX c #FFD6BA",
"jX c #FFE3CA",
/* pixels */
"                                  O O                   O O O     . . X   + +             X                                     ",
"                                                + . #     @   @ . . . *       +                                                 ",
"                                .           X   . . . . .       . . . .       @                                                 ",
"                                . . . .   X % $ & h . $ a 8 v . % g g . . o       @ @                                           ",
"                                . . . . o : M  .B m r r B &.X.& s Q +.v g *           @                                         ",
"                                . . . $ g N -.K.m.o.z.I.Q.K.*.n.n.j.C.C.C.g.8 o                                                 ",
"                                . . . * ! +.j._.~.z.P.'.Q.v.2.(.I.=.n.).8Xb.c X o                                               ",
"                                . . . 8 %.@.&.!.'.XX1.{ ;.v.Q.,.,.$.!.`.`.n.%.R 8 o                                             ",
"                                      * : %.E._. XXXF.G.F.F.k.,.,.(.m.v.m.n.W.: X   .                                           ",
"                                    1 # . f.9XQ.~.XX.X].XXF.;.2.v.[.k.*.*.W.).: *         X                                     ",
"                                  +     X g  .K.l.1.S.S.].'.F.$.<.I.Q.I.&.j.x.s :         X                                     ",
"                                O       . . . z l.G.A.D.tXoXP.k.<.O.z.m.&.&.j.W g . .     X                                     ",
"                                O   X X . . $ & :.jXsX@XaXS.:.yX~.z f f X.m.). .c X       X                                     ",
"                                        . y ] w ) hXuX{.aX}.S.U.U.' <.j.o.&.C.M c X .                                           ",
"                                    o o & j.oX) t @XsXiXuXuX{.>.1.1.0XpXo.m f.h k . .                                           ",
"                                  -   N `.9XgXyX#XiXiX#XdXuX+X>.:.l. XqX` j.).W k .                                             ",
"                                      :  .m.'.Y.T.J.{.+X#X+XR.H.Y.'.'. X .Q @.8                                                 ",
"                                  @   . $ n $.3.:.>.T.{.@XR.H.T..X0XOX_. .a .                                                   ",
"                                    X . . & ` |.XX].H.G.{.}.T.G.F.$.k.E.n % . X                                                 ",
"                                @     . o . u eXyXyXY.3.].].U.3.2.O.o.&.& . X                                                   ",
"                                @       o . $ !.!.!.z.k.(.I.F.z.m.`.o.$ o X                                                     ",
"                                    X   . $ & -.=.f.#.#.E.E.m.=.-.x.a . * . . X                                                 ",
"                                  @ @     . . . . % M M f.x.-.W h $ . : *                                                       ",
"                                @     # .   X . * . . o W ~ T g % $ % . o o                                                     ",
"                                            .   .     . ~ @.R - o % 8 8 o . X 1                                                 ",
"                                                      # Z.).h.c * * k T 8 * # .                                                 ",
"                                                  X   X Z.b.R   % o j ! v 8 *   .                                               ",
"                                                    . o %.9 X : % . : Q v c j . * o X                                           ",
"                                                . . o : > . & C i . : M v W W % * o .                                           ",
"                                              . # * * : . ; i d n y y i h Q Q > $ X .                                           ",
"                                              * 8 k : & i C ` V V n y & a Q Q & o . .                                           ",
"                                    . . . . = j k W s . n V V X.B B d % i Q W % % X                                             ",
"                                    . . $ $ l | Q n ; % n x ' | ..l y ; i V W 9 8 X   . . . + +                                 ",
"                                  . : . $ /.rXh n . ; & u ` O.O.} ..u . i C N R 9 . . X . . + +                                 ",
"                                +   . W ^.wXfX`.E.$ & a d m ` ' ` O.z p p p h +.~ % % X       +                                 ",
"                                O + .  .`.eXfX9XC.. . : v B ] ] [ ) [ [ e u m } } $ $ .                                         ",
"                                , O * . . v.rX. $ . + . g B O._ _ _ ] ' w f ' / f $ $ . . X                                     ",
"                                O O   . . X.M.$ . * + . k W  .V [ [ ` | e w ( S.l.;.a .                                         ",
"                                O 4     ; . . . % . .   T R b ! b ! M ..w u :.tXyXqX| . +     X                                 ",
"                                < O   X     & . . . *   1 0 # 0 7 7 0 K . c.0XyXaXpX... q O @                                   ",
"                                              . X   X X 5 , H I P P L G 4 x.9XoXoX|.... + O O                                   ",
"                                        O O       o   @ ^ 9.7.d.<X<X1X:XG   % $ & p . . + O O                                   ",
"                                        O O O         7 D q.s.7X2X*X<X:X7.O o % . o . . + O O O                                 ",
"                                        O O O       @ < S y.3X5X6X2X%X&X8.Z @   X X X .     O O                                 ",
"                                        O O O     @ O 2 u.%X=X-X%X%Xs.q.P F G , O           +                                   ",
"                                . .             O , G e.<X2X6X-X*Xs.6.A L 6.e.P F , O     X                                     ",
"                                . .             < Z d.1X>X=X;X$Xs.6.Z 3 8.q.a.0.0.A ,         X                                 ",
"                                              O H N.1X7X=X5X$Xt.8.Z , 3 7.4.y.u.u.4.D O       X                                 ",
"                                  X     . o @ < P <X4X4X2X%X&X5.G O O , G 9.q.y.y.0.L , < X   .                                 ",
"                                @   o o . +.b.H 7.<X4X%X*X&X5.A O .   O 2 A 4.q.e.e.9.J K 1   o                                 ",
"                                @     . . 8 i.p.B.r.,X<Xs.8.S ,       O , 2 L 9.I 9.Y J 6 X                                     ",
"                                  1   . % . # Z.V.P a.N.9.Z , ,         O , 3 H H J U K 1                                       ",
"                                O O . . $ . . E J Y w.Y D , O X X           O O K 6 0 5 @                                       ",
"                                < O   . . . .     6 J U O   # .             @ 1 0 # X                                           ",
"                                  O   . $ . . 8 +   6 E     * .             # 9 8 X X X     X                                   ",
"                                  O   . . . .     # 1 +   . . . X           X * * .                                             ",
"                                                          . . .           . . . . . .                                           ",
"                                                                          . . . . .                                             ",
"                                                        O O O O           . . . .                                               ",
"                                                          O O O                                                                 ",
"                                                            O                                                                   ",
"                                                                                                                                ",
"                                . .               . . .           .                         . .                                 ",
"                                . . .             . . .         . . .                       . .                                 "
};
