/* XPM */
static char *dzyaz_removebg_preview__2_1690798414[] = {
/* columns rows colors chars-per-pixel */
"64 64 242 2 ",
"   c #010000",
".  c #0A0201",
"X  c #020905",
"o  c #0C0904",
"O  c #02020A",
"+  c #0A030A",
"@  c #030A0C",
"#  c #0B0B0C",
"$  c #120401",
"%  c #1A0603",
"&  c #130A03",
"*  c #1B0C03",
"=  c #130C0A",
"-  c #1B0D0B",
";  c #0E110E",
":  c #16100A",
">  c #1B120D",
",  c #1E150B",
"<  c #010312",
"1  c #020C13",
"2  c #0C0C12",
"3  c #01041C",
"4  c #000B1C",
"5  c #0C0B1B",
"6  c #140E15",
"7  c #091319",
"8  c #131313",
"9  c #1D1412",
"0  c #19191C",
"q  c #220D01",
"w  c #280B03",
"e  c #231301",
"r  c #23140B",
"t  c #2B1A0C",
"y  c #291708",
"u  c #341A01",
"i  c #241A14",
"p  c #2B1D15",
"a  c #251A16",
"s  c #341E11",
"d  c #39240D",
"f  c #2D231C",
"g  c #292119",
"h  c #342214",
"j  c #3B2515",
"k  c #34241B",
"l  c #3B2619",
"z  c #3D2A1B",
"x  c #39291A",
"c  c #2F200D",
"v  c #000524",
"b  c #010B23",
"n  c #050728",
"m  c #081128",
"M  c #171825",
"N  c #031738",
"B  c #201920",
"V  c #09233B",
"C  c #172335",
"Z  c #232323",
"A  c #2C2423",
"S  c #282729",
"D  c #342A22",
"F  c #3B2D23",
"G  c #352A28",
"H  c #3B312B",
"J  c #303028",
"K  c #272A34",
"L  c #3B3636",
"P  c #392F30",
"I  c #471400",
"U  c #452C15",
"Y  c #4C2C1B",
"T  c #44291A",
"R  c #4E331E",
"E  c #5A351A",
"W  c #502F12",
"Q  c #743D15",
"!  c #412E24",
"~  c #482D27",
"^  c #453225",
"/  c #4B3424",
"(  c #44352B",
")  c #493629",
"_  c #4B382A",
"`  c #543C2C",
"'  c #583824",
"]  c #433933",
"[  c #483D37",
"{  c #523E34",
"}  c #603E23",
"|  c #603F30",
" . c #5D442E",
".. c #4D423C",
"X. c #474139",
"o. c #544334",
"O. c #584639",
"+. c #69462A",
"@. c #794B27",
"#. c #6C4C35",
"$. c #654A36",
"%. c #6B523C",
"&. c #7C573B",
"*. c #714E3B",
"=. c #061941",
"-. c #082345",
";. c #152E5E",
":. c #0F2C57",
">. c #283448",
",. c #25355A",
"<. c #313E5B",
"1. c #232B44",
"2. c #1A3562",
"3. c #403941",
"4. c #3E4244",
"5. c #2E445B",
"6. c #394965",
"7. c #2D4D7C",
"8. c #365278",
"9. c #2C4B6E",
"0. c #164478",
"q. c #494445",
"w. c #554C46",
"e. c #595248",
"r. c #514D54",
"t. c #624E40",
"y. c #6A5445",
"u. c #685646",
"i. c #755A45",
"p. c #625E5D",
"a. c #675E59",
"s. c #725F59",
"d. c #64625D",
"f. c #7A6556",
"g. c #79604C",
"h. c #4B5677",
"j. c #586271",
"k. c #796C69",
"l. c #7D7A77",
"z. c #646061",
"x. c #85522B",
"c. c #865834",
"v. c #9A6339",
"b. c #86644A",
"n. c #946948",
"m. c #9B704D",
"M. c #876956",
"N. c #956D53",
"B. c #997458",
"V. c #8F7157",
"C. c #A97149",
"Z. c #B57649",
"A. c #A77957",
"S. c #B57C54",
"D. c #A16D48",
"F. c #877968",
"G. c #9C7B63",
"H. c #967B69",
"J. c #8C7E73",
"K. c #A37C62",
"L. c #C17B50",
"P. c #7C817D",
"I. c #B78056",
"U. c #AD825F",
"Y. c #978678",
"T. c #948574",
"R. c #AA856A",
"E. c #B88868",
"W. c #A68977",
"Q. c #B38C75",
"!. c #A99077",
"~. c #B49278",
"^. c #BD906F",
"/. c #C68659",
"(. c #CA8C62",
"). c #C68A65",
"_. c #D98D61",
"`. c #C7936B",
"'. c #D69263",
"]. c #DA9869",
"[. c #C79978",
"{. c #D39C75",
"}. c #E29867",
"|. c #EA9F72",
" X c #DBA57B",
".X c #E7A274",
"XX c #F2A577",
"oX c #285389",
"OX c #355786",
"+X c #365C95",
"@X c #38669B",
"#X c #2B619D",
"$X c #275CA0",
"%X c #3A68A6",
"&X c #3B6BB3",
"*X c #2F66A9",
"=X c #455B8A",
"-X c #435D90",
";X c #44629A",
":X c #486798",
">X c #546892",
",X c #4E668A",
"<X c #7D7E82",
"1X c #486AA8",
"2X c #4C70AA",
"3X c #5674A6",
"4X c #4A6DB9",
"5X c #4872BB",
"6X c #5476B4",
"7X c #506EA4",
"8X c #667EAE",
"9X c #4E74C0",
"0X c #7F8993",
"qX c #888996",
"wX c #9C9896",
"eX c #868686",
"rX c #AC9585",
"tX c #A09791",
"yX c #B99985",
"uX c #ACA8A9",
"iX c #CAA587",
"pX c #D6AB89",
"aX c #D0AF98",
"sX c #ECB28E",
"dX c #CABEB9",
"fX c #DABEA6",
"gX c #C89F8B",
"hX c #CDC1B4",
"jX c #CCC3BC",
"kX c #C8C6BB",
"lX c #D2C5B7",
"zX c #CDC2AE",
"xX c #E9C2A6",
"cX c #F5D0B3",
"vX c #CBC7C5",
"bX c #D2CAC4",
"nX c #D5CBCC",
"mX c #D9D4CB",
"MX c #D9D0D4",
"NX c #EDD7C8",
"BX c #FFE9D4",
"VX c #FFF0CF",
/* pixels */
"                                . .     O X X X   . . . . . .     .     . o   . .             O                                 ",
"                                . .     X X X   @     - . $ &         X       & .           X                                   ",
"                                . .       X X X =   . .     o     ;     o X .                                                   ",
"                                  . .     X ; Z + . A P Z S Z @   Z Z 0 ;   #                                                   ",
"                                .   . .   ; J e.A , P w.L q.4.8 , L X.L S @ 2 @               .                                 ",
"                                      .   9 e.Y.Y.k.{ ( w.q.L w.e.w...q.X.Z O   O X O       .                                   ",
"                                @ +     & x u.Y.H.T.*./ O.O.( w.y. .%.t.w.] ; 8 O   O     .                                     ",
"                                    # g F _  .i.#.#.B.b.Y i.W.#.+.E +. .g.J.] 8 X O O .                                         ",
"                                  ; Z L ( ` +.' &.n.K.m.c.A.K.v.x.v.v.m.V.i.{ k A 0   X O O   .                                 ",
"                                1 M J X.o.o.+.E n.S.(.).S.S.L._._.Z.I.`.c.} ` [ ..L # @       O                                 ",
"                            O O X 8 Z k h ' G.[.`. X{.'.|.|.}._.}.]..X X{.Q.#./ O.H           O                                 ",
"                                  8 0 F l ' G.iX[.pXpX].}.|.XX|.}.}. X{.pXiX#.' O.( . o +   O O                                 ",
"                                o o * _ ` T +.&.c.@.@.C./._.|._.(.c.x.x.@.i.R / ` F . o .                                       ",
"                              X . o r u.y.Y *.b.V.n.m.I.S._.XXL.I.U.B.B.n.b.' ` u.{ .       O @                                 ",
"                              . $ t { rXW.| M.!.zXVXVXpX).(.sX/.R.NXVXVXcXW.$.i.rXF.q % .   .                                   ",
"                              . o * ~ W.H.' b.~.fXcXiXU.E.'.XX/.R.[.aXNXzXR.$.{ rXk.. . .   +                                   ",
"                                  r _ !.H.E b.E.cXcXI Q (.'.XX/.I.I c.VXxXR.+.#.~.f.% & .   +                                   ",
"                                o = p u.i. .B. X`.pXC.'.].}.XX}.].Z.I. X`.[.&.' f.O.. &   O O                                   ",
"                                    * (  .+.B.[.E.E.`.{.(.(.}._./.'.).^.`.iXb.$.{ ! . o     O                                   ",
"                                    , F _ #.M.R.pXpXE.S.S.Z.I.Z.S.S.[.pX[.R.*.o.F k . o                                         ",
"                                O   9 r h  .M.~.Q.[.Q.m.D.C.I.I.v.S.[.iX~.W.y.F p a + O       O                                 ",
"                                    o . $ z i.W.T.G.R.n.Q x.Q Q x.A.A.B.!.J.{ f # o   .                                         ",
"                                O       . % ^ $.F.H.b.B.U.^.^.E.U.n.b.R.H.O.r o     O     .                                     ",
"                                O O   o . . y x u.!. .T.aX~.[. XiXb.b.Y.i.g 9 + # O X O                                         ",
"                                O O   .   & * * ^ u.u.F.!.U.R.!.!.i.%.t.( $ - #   O O                                           ",
"                                    . : , * % $ r ( o.g.k.V.f.V.M.y.{ h r $ : o 9 #           .                                 ",
"                                .   : D H g * * o & D X.u.g.%.$.u.( r . * * p A H 0 .   .                                       ",
"                                  . , D F h r : . . ] X.X.%.%.e.e...D . = * i D ] G i = .                                       ",
"                              . * p ^ ) ( ^ z k : : p...D c c x k r.w.. $ x ^ _ ! ( F r . . O                                   ",
"                            X   . t ^ ^ T T x g & o d.F.T.T.T.!.eXl.r.. % h l l T _ ^ r o O o .                                 ",
"                            O . * d / / T z j k , = d.wXmXmXmXlXbX0XL   r z s Y U Y T r $ o # @                                 ",
"                            . . % e j U j y y g & : d.wXbXkXlXkXkXl.q.  - p q u R U j y = o + @                                 ",
"                              . o c c z j w t p - = z.tXbXbXjXjXkX<Xq.  8 g * e U d T q = + @ O                                 ",
"                            o X o t d / l q r x - = z.tXbXjXjXlXkXP.4.O 6 A * e U d ! p =   o o                                 ",
"                            X . & t h _ T % y F * $ d.tXbXjXlXlXkXP.L   9 f * e d u ~ s - .                                     ",
"                          O   . o g D ! h q * x - $ d.tXlXlXlXfXkXl.X.. 9 k e e u u Y w % = o                                   ",
"                            O   ; Z G g a g p f = + d.wXnXdXdXlXzXJ.{ . q s u U &.g.M.s % - o                                   ",
"                          X X . = A P - r F F g : o p.wXvXjXdXdXzXF.... % l U #.iXpXaX{ $ o .                                   ",
"                            . + % s F q w ^ z g : X p.wXvXjXdXdXzXF.q.. = j U #.~.~.yX~ . .   .                                 ",
"                              . w T Y w w U l c * . p.wXvXvXdXjXdXl.q.. 9 x x  .W.H.rX~ $ =                                     ",
"                  +     .   . f Q.yX[.S.B.Y T I * o p.uXMXMXMXnXbX0X4.< 5 A ! x u y y % . O                                     ",
"                  X     @   o g gX[.K.n.c.| s 9 # Z r.j.qXqXqXqX0Xj.>.b m M P f . $ $ . . O   O                                 ",
"                  O     o   O 9 rXyXB.w % A B 3 b N =.N -.N v N n N =.=.N 3 K J   . .     O   X                                 ",
"                              o w w p $ + M 1.h.;XoX+XoXoXOXOX8.OXOXOXOX=X5.C   . . . .     X                                   ",
"                  X                 O 5 n v 2.1X#X$X*X*X#X%X@X@X:X+X@X+X2X>XC O       .       X                                 ",
"                        O         ; O O 3 v oX6X&X9X&X&X%X0.:.OX@X%X9X%X1X:XN 1     .   .   X                                   ",
"                      .     .   .     + m 3 ,.7X3X6X@X@X7.-.v 9.oX*X5X&X2X3XV @ # .                                             ",
"                O               o   o   O n ,.8X;X6X;X;.v V 4 b N oX&X9X4X:X-.+ X   . . .   O X                                 ",
"                                .       < 3 5.3X7X2X7X:.v b 7 < n 7.;X4X4X1XV @       + O O   X                                 ",
"                                .     O 1 b 9.3X7X:X-X,.v < @ 1 n 7.1X9X5X2XV @ X . . + + O                                     ",
"                                  .     1 4 5.>X,X>X>X,.4 O X @ v 7.%X9X4X1XV @   . . + + O   X                                 ",
"                                . .     @ @ K 6.6.h.h.K 4 #   O v oX&X9X9X2X-.1 X   . O + O                                     ",
"                                    .   o   M K C m 5 5 6 -     b 7.1X9X5X1XV 1 X     + O .                                     ",
"                                  .   . o   ; 6 B K >.B 6 = . # 3 8.;X4X2X:XV @ X   . . + O                                     ",
"                                        o   = = q.k.l.L = = . O 4 h.-X:X=X,XV 7       . O .                                     ",
"                                        .   & . i P G = . +   = @ >.<.,.,.5.@ O X     .   O                                     ",
"                                  O         . . . . . .     + # 2 0 6 M M M 5 O     .   O                                       ",
"                                  X   O         . . o   .   O # - ] r.r.3.6 .             O                                     ",
"                                O   O   O     .   . . .     O . 9 w.s.s.[ i = o         O O                                     ",
"                                      O   O                 O O . q w % % .                 O                                   ",
"                                      O   O O O       .     O O   $ . . $ . .         O                                         ",
"                                        O O O             . O O   .   . o .       O                                             ",
"                                        O O O             . O O O #   X X     O O           .                                   ",
"                                  .   .   O O   .         . O O O 1           O   O O     . .                                   "
};
