/* XPM */
static char *_3e107f1ee2442b7d520e8d50d275dcdK0f0HCsODTypuzkT[] = {
/* columns rows colors chars-per-pixel */
"64 64 225 2 ",
"   c #000001",
".  c #0A0301",
"X  c #050905",
"o  c #0C0A05",
"O  c #02030A",
"+  c #0C040C",
"@  c #040A0B",
"#  c #0C0B0B",
"$  c #120400",
"%  c #1C0400",
"&  c #130B03",
"*  c #1A0B02",
"=  c #120D0B",
"-  c #18090B",
";  c #0E100D",
":  c #0D190D",
">  c #1B1104",
",  c #14110B",
"<  c #1B130C",
"1  c #191807",
"2  c #000314",
"3  c #030A15",
"4  c #0D0E13",
"5  c #020B1D",
"6  c #00051B",
"7  c #0D1215",
"8  c #08101A",
"9  c #141413",
"0  c #191512",
"q  c #1D1A14",
"w  c #12141A",
"e  c #171A19",
"r  c #120B12",
"t  c #220600",
"y  c #270D00",
"u  c #2C1A02",
"i  c #23160C",
"p  c #25190C",
"a  c #2A180A",
"s  c #311300",
"d  c #321905",
"f  c #331D0B",
"g  c #231B13",
"h  c #2B1D13",
"j  c #221D18",
"k  c #291E18",
"l  c #341D13",
"z  c #301E1A",
"x  c #2B220E",
"c  c #3B240B",
"v  c #372206",
"b  c #2A2214",
"n  c #25221B",
"m  c #2C241A",
"M  c #23261A",
"N  c #352414",
"B  c #3B2614",
"V  c #34291D",
"C  c #3C2C1D",
"Z  c #3B2B17",
"A  c #3E351A",
"S  c #000C25",
"D  c #0B1523",
"F  c #00132B",
"G  c #0B1827",
"H  c #131524",
"J  c #151B23",
"K  c #181C29",
"L  c #081837",
"P  c #131734",
"I  c #211F22",
"U  c #172229",
"Y  c #0E2239",
"T  c #192737",
"R  c #272624",
"E  c #342B23",
"W  c #3C2C23",
"Q  c #312B26",
"!  c #2E362D",
"~  c #3A3226",
"^  c #3E332A",
"/  c #35362A",
"(  c #2A333A",
")  c #3A3837",
"_  c #452A0A",
"`  c #46300F",
"'  c #442E12",
"]  c #412C1B",
"[  c #452917",
"{  c #433114",
"}  c #4B321B",
"|  c #473418",
" . c #583719",
".. c #402C21",
"X. c #433324",
"o. c #44392B",
"O. c #4B3728",
"+. c #563B27",
"@. c #483E34",
"#. c #513F35",
"$. c #603D27",
"%. c #59432C",
"&. c #4C4235",
"*. c #47403A",
"=. c #544434",
"-. c #5B4433",
";. c #52453A",
":. c #5C4936",
">. c #654A2C",
",. c #744A28",
"<. c #664D36",
"1. c #704E35",
"2. c #69533B",
"3. c #75563C",
"4. c #7F582D",
"5. c #001A4E",
"6. c #0B234A",
"7. c #082447",
"8. c #152945",
"9. c #062558",
"0. c #142D55",
"q. c #0E335F",
"w. c #193458",
"e. c #1E364E",
"r. c #24354B",
"t. c #283B55",
"y. c #153468",
"u. c #1A3968",
"i. c #0F3371",
"p. c #2C3C60",
"a. c #324152",
"s. c #274367",
"d. c #2B4574",
"f. c #3D4F7D",
"g. c #464748",
"h. c #5A4C45",
"j. c #5A524A",
"k. c #494F5B",
"l. c #585555",
"z. c #4C545F",
"x. c #654E43",
"c. c #6C5B4B",
"v. c #675644",
"b. c #765C46",
"n. c #695E56",
"m. c #725F51",
"M. c #786149",
"N. c #766656",
"B. c #6E6254",
"V. c #4D5D7F",
"C. c #4E596A",
"Z. c #5E6874",
"A. c #686868",
"S. c #666979",
"D. c #727471",
"F. c #7C7065",
"G. c #8E5F35",
"H. c #80623E",
"J. c #835E42",
"K. c #85694F",
"L. c #8C6C4D",
"P. c #846547",
"I. c #966A49",
"U. c #846C57",
"Y. c #897259",
"T. c #92735C",
"R. c #997759",
"E. c #A57954",
"W. c #827466",
"Q. c #8C7563",
"!. c #8C7B6B",
"~. c #85756A",
"^. c #947C64",
"/. c #967B68",
"(. c #897C72",
"). c #856F62",
"_. c #A17D63",
"`. c #B88457",
"'. c #99826B",
"]. c #888179",
"[. c #9B8572",
"{. c #958779",
"}. c #A98467",
"|. c #B88B67",
" X c #A58A78",
".X c #B6957A",
"XX c #B39274",
"oX c #C4966C",
"OX c #CB9364",
"+X c #CB9C74",
"@X c #C89C7B",
"#X c #D4A275",
"$X c #DAA77F",
"%X c #D9A77A",
"&X c #2D5598",
"*X c #2D5088",
"=X c #396297",
"-X c #3A66A8",
";X c #3B6BB5",
":X c #3F71BA",
">X c #476285",
",X c #5B6B87",
"<X c #466798",
"1X c #556E96",
"2X c #466BA7",
"3X c #4873B8",
"4X c #6284C1",
"5X c #9A8E80",
"6X c #9C9C9A",
"7X c #AC9587",
"8X c #B89A87",
"9X c #A19A90",
"0X c #BBA08F",
"qX c #CCA58A",
"wX c #C1A38E",
"eX c #D9B18D",
"rX c #D8B599",
"tX c #CBA88F",
"yX c #E3B38B",
"uX c #CAB0A1",
"iX c #F5CCAD",
"pX c #FDD3B2",
"aX c #E5C0A3",
"sX c #FFEAD2",
"dX c #FFF3DA",
/* pixels */
"                                        X     X   O     O   O         .     .       .     .                                     ",
"                                                  O   O   O   O +             . .     .     .                                   ",
"                                                      O O             O                                                         ",
"                                    X               O     O     O   O   O O   O O                                               ",
"                                                    X     .   X O O   X   X   @ X     O O                                       ",
"                                                    # . . # . =   O @ @ 3 O     @         X O                                   ",
"                                                .   0 o o < . , X # 9 9 0 @     7 @ X                                           ",
"                                                . . g < < g & i m j q , , , , , < ; X                                           ",
"                                X       .     < , q 1 / ;.o.1 A h.:.@.& g ~ W ~ E o q & X .                                     ",
"                                        . X   & V F.].W.j.N.F.N.%.Q.{.Q.m.=.W.N.;.m 1 o 0     .                                 ",
"                                  X     X , , i *.{.{.{.v.c.'.N.b.Y.^.^.b.<./.N.X.;.E & q . .                                   ",
"                                O       X 0 j ^ j.F.'.{.N.=.:.b.^.,. .+.Q.8X7Xm.#.&.^ $ ,   o                                   ",
"                                O       X o 1 &.].F.B.M.Y.Y.%.v.3.P._.L._. X/. XW.V g . =     O                                 ",
"                                      # o o , &.].2.:.v.Y.'.%.3.G.oX}.I._.T. X!.c.> = .                                         ",
"                                    X X & , b *.&.A c.[.N.2.%.M./.qX}.3.$.} $.l > - = +   O O O                                 ",
"                                        o 0 m &.N.&.%.M.%.>.L.L.E.|.8XE.T.7X Xx.* g   O O O O 2                                 ",
"                                  O     o o V v./.>.+.[ f 1..XL.,.OXyXqXiXdXsX/.h W #   O O O O                                 ",
"                                      X , , p X.X.[ +.XXK.>.%.R.+X#XOX+XiXsXb.#.{.* . q X O @                                   ",
"                                O     X o : m &.<.C } tXK.b.>.P.oX+XyX+XpXpX1.b.7X..k o     X X                                 ",
"                                  O       o m j.!.[ O.wXK.$.>.I.#X#X%XeXyXrXqXtXuX7X(.< , .                                     ",
"                                    X X X   : Q ^ V #.7X0XY.M.}.E.OX`.yXI.I././.).O.#.& . . X                                   ",
"                                . .           o . p ..).Q.XX}.L.G.`.OXE.I.I.J.1.+.. * * .                                       ",
"                                . .     X   X @ # . h m.A | 2.P.|.+XOX,.|.rXrXY.* % $ . .     X                                 ",
"                                  .     X X X @   - g &.:.%.2.M.E.|._.G._.wX0Xc.$ g . . X X                                     ",
"                                . .           X X = . % B.'.2.M.K.R./.b.K./.~.#.* = X                                           ",
"                                  .     X   X @ X < & . i Z A %.b.b.2.] a h z j . + .                                           ",
"                                .             X . - i . . i V o.c.n.&.^ * .   =     O   O O O O                                 ",
"                                            X o < k N * & > 1 x Q W m , = .   O   O                                             ",
"                                      X     X & E O.X.i % X   E l.A.j.X 9 O # O O     O                                         ",
"                                O O   . . o 1 x W X.C l h o X / D.6X].# #         O O                                           ",
"                                      X o & p N X.B l h h <   X ! D.A.X w X O O     .                                           ",
"                                O O O O . & u c } s c l p b q ; X g.g.. w +                                                     ",
"                                O O O O . . * u ` _ d t a N b x       , # # 9     .                                             ",
"                                  O O O . * . u ` d f % f Z Z c m n 0 o . o 9 . .             X                                 ",
"                                    O +   r o 1 | x h * h C C Z b V m , $ = = o           X                                     ",
"                                      + O 9   1 / b j - g C | { ] m p & E ) q .     O                                           ",
"                              . . . . + O w   : ! M R ; g V { { | N a * h E & e   O                                             ",
"                                . . . O O 7   : ! M M ; g B { ` c c B * m ^ . e     O                                           ",
"                                  . .   O + X 1 / b b & a Z ` `  .c d * n.5XR .   O O         .                                 ",
"                                  . +   & & & v A x N y f B ` ` _ v d * n.9XQ X O   O O     .                                   ",
"                                      + - $ % s v s s t [ c | ` { v x * * . =       O     .                                     ",
"                                  X O r $ y  . .G.,.$. .t d } Z X.N h $ .   X                 .                                 ",
"                                X O O r . X.@XoXqX#XqX8Xx...W ^ Q n j & o X o                                                   ",
"                                  @ O   $ =.rXeXeXaX Xl t + = 4 7 4 4   #                 O                                     ",
"                                  @ O   - z x.2.<.).h.+ K U D D T P G 3 8                   O                                   ",
"                                  X   O + . . $ . + 2 P L L F e.s.r.T 5 8 @   o   . .                                           ",
"                                        2 O O 4 8 t.p.f.p.*X5.7.w.w.Y 6 S O   X     .         O                                 ",
"                                X   #   O 3 3 L 6.>X=X2X4X*X5.q.u.q.7.F U O O   .           O                                   ",
"                                X       O D 5 0.=X=X;X;X3X&X9.9.u.w.6.S 6 O X                                                   ",
"                                    X   X U Y s.=X-X:X;X&Xi.i.y.u.0.7.S 5 O                                                     ",
"                                    #   # ( C.>X<X-X2X-Xi.9.y.u.q.6.L S D                 O . .                                 ",
"                                    # o e ( Z.Z.1X1X2X-Xy.9.d.w.0.7.F 6 H O   X                                                 ",
"                                @   # o , e a.k.S.1X1X<X0.6.s.e.0.T G S w     .                                                 ",
"                                O     o & & R ) Z.Z.,XV.r.L r.r.8.P H 3 4 .                                                     ",
"                                O     . X & & / A.S.S.Z.C.p.r.a.8.G K w = o &         X                                         ",
"                                    X   X & . E l.l.z.z.C.z.R r.( H I I 0 < n .             .                                   ",
"                                  O     . . . & * - .   @ 7 U U K K R g.n.n.Q .                                                 ",
"                                X           . . . $ . . . ; 7 w J e J Q *.@.k .       O     .                                   ",
"                                            X . . . . . X O X 3     . . & & X         O O                                       ",
"                                              . . .   . . . O   O       .   . .             .                                   ",
"                                                  .   .         X     .   .         O       .                                   ",
"                                  .     X O O     . .       O             . .     O   O                                         ",
"                                .       X O O O   O   .       O   X   X .       O     O       .                                 ",
"                                .       X @ O O O           O             .         O         .                                 "
};
