/* XPM */
static char *_97879b50f09456aca2cb83c513f258011dWulYmoQJaWMfg[] = {
/* columns rows colors chars-per-pixel */
"64 64 228 2 ",
"   c #010001",
".  c #0B0301",
"X  c #040804",
"o  c #0D0904",
"O  c #02030A",
"+  c #0A050A",
"@  c #05090C",
"#  c #0B0A0B",
"$  c #130500",
"%  c #1B0600",
"&  c #130B04",
"*  c #1B0C02",
"=  c #130E0A",
"-  c #1A0F0A",
";  c #1E1206",
":  c #14110D",
">  c #1C130B",
",  c #010412",
"<  c #020B13",
"1  c #0B0C12",
"2  c #00051B",
"3  c #010B1C",
"4  c #100D15",
"5  c #0B1214",
"6  c #0D141C",
"7  c #1B1411",
"8  c #1E1912",
"9  c #14131A",
"0  c #1B191C",
"q  c #151819",
"w  c #230D01",
"e  c #240F0A",
"r  c #241404",
"t  c #291504",
"y  c #22140B",
"u  c #2C1B0B",
"i  c #28180A",
"p  c #341F09",
"a  c #341C04",
"s  c #241B14",
"d  c #2A1D13",
"f  c #261711",
"g  c #301A12",
"h  c #2F200D",
"j  c #34220C",
"k  c #38220B",
"l  c #2C241C",
"z  c #292219",
"x  c #3A2715",
"c  c #3B2C13",
"v  c #33261A",
"b  c #352A1C",
"n  c #3B2B1C",
"m  c #342815",
"M  c #3D3119",
"N  c #000622",
"B  c #020D22",
"V  c #00072A",
"C  c #000F2B",
"Z  c #0E1C2B",
"A  c #081627",
"S  c #1A1D2A",
"D  c #141A27",
"F  c #00123B",
"G  c #031D3C",
"H  c #091834",
"J  c #151F35",
"K  c #000932",
"L  c #18232E",
"P  c #1B2333",
"I  c #18283D",
"U  c #0F202A",
"Y  c #2D2A29",
"T  c #252225",
"R  c #332B23",
"E  c #3B2E23",
"W  c #3B2825",
"Q  c #3D3224",
"!  c #3D332B",
"~  c #37312B",
"^  c #242836",
"/  c #393631",
"(  c #462D15",
")  c #492D16",
"_  c #422D1A",
"`  c #492E1B",
"'  c #45321B",
"]  c #4A321D",
"[  c #463016",
"{  c #4C2C14",
"}  c #653B1B",
"|  c #412F27",
" . c #423222",
".. c #43352B",
"X. c #4D3A2D",
"o. c #483828",
"O. c #543C27",
"+. c #473C33",
"@. c #503E30",
"#. c #5B432E",
"$. c #54402E",
"%. c #4D473D",
"&. c #54453B",
"*. c #59463C",
"=. c #5C4A3C",
"-. c #574636",
";. c #694426",
":. c #644D3C",
">. c #664A34",
",. c #7C4F30",
"<. c #63503F",
"1. c #78543A",
"2. c #774B28",
"3. c #000D42",
"4. c #001240",
"5. c #142545",
"6. c #18284A",
"7. c #1E334C",
"8. c #0B2B59",
"9. c #152C56",
"0. c #1A3557",
"q. c #03234C",
"w. c #222D44",
"e. c #24355C",
"r. c #243959",
"t. c #2F384C",
"y. c #032A63",
"u. c #1B3763",
"i. c #253C62",
"p. c #32405B",
"a. c #304361",
"s. c #314A72",
"d. c #4D4642",
"f. c #45454F",
"g. c #554B46",
"h. c #5E5145",
"j. c #59544B",
"k. c #5D5851",
"l. c #655344",
"z. c #695748",
"x. c #735945",
"c. c #725D4B",
"v. c #795E49",
"b. c #695C52",
"n. c #7B624D",
"m. c #746253",
"M. c #79695A",
"N. c #6E6152",
"B. c #53617B",
"V. c #736B63",
"C. c #7D7165",
"Z. c #7D746F",
"A. c #6B6A71",
"S. c #855838",
"D. c #855D43",
"F. c #89664B",
"G. c #976C4D",
"H. c #816652",
"J. c #8B6E56",
"K. c #836C5B",
"L. c #856C57",
"P. c #926F55",
"I. c #89735C",
"U. c #977459",
"Y. c #A37453",
"T. c #AA7A58",
"R. c #806F63",
"E. c #847365",
"W. c #8A796C",
"Q. c #957A65",
"!. c #927F70",
"~. c #B9815A",
"^. c #9C826D",
"/. c #9A8879",
"(. c #8B827D",
"). c #A78063",
"_. c #A6846B",
"`. c #A9856D",
"'. c #B78867",
"]. c #AB8C72",
"[. c #A38E7D",
"{. c #A58974",
"}. c #B7967D",
"|. c #AE8F78",
" X c #DA996E",
".X c #C79875",
"XX c #DC9E74",
"oX c #CA9068",
"OX c #E19A6C",
"+X c #E9A67A",
"@X c #1C4888",
"#X c #244D86",
"$X c #375784",
"%X c #3B5F9D",
"&X c #3C6198",
"*X c #305FA5",
"=X c #2E5DA1",
"-X c #3D69AE",
";X c #3863A8",
":X c #3B6CB7",
">X c #465C88",
",X c #596A89",
"<X c #446395",
"1X c #496A9C",
"2X c #516994",
"3X c #456CA9",
"4X c #506AA4",
"5X c #5577AC",
"6X c #4B71B4",
"7X c #99968F",
"8X c #A58D86",
"9X c #A79688",
"0X c #B29985",
"qX c #BCA596",
"wX c #C9A487",
"eX c #DBAA88",
"rX c #C7AB97",
"tX c #D6B49D",
"yX c #D3AF95",
"uX c #E9B695",
"iX c #C4AFA5",
"pX c #CCB5A8",
"aX c #D2B9A3",
"sX c #D7C1B6",
"dX c #F3CBAF",
"fX c #DFCBC0",
"gX c #F3DBCB",
"hX c #FFECDB",
/* pixels */
"                                O         O O   @ O   ,   O 1 O           +     O           .                                   ",
"                                              O   @ 1     O       .   X       O   O                                             ",
"                                                  O     #     + + +     .   O       O   .                                       ",
"                                    O     O     . .   = +   :   +         X             O   O O                                 ",
"                                O                   $ o   . & .     =     #   $ . .   O O   O O                                 ",
"                                    O       . . & . > ; +...$ | d.Y T . = Y s l 8 &       O O O                                 ",
"                                            . o . $ e d *.X.w ..g.g.R - y v W g E f . . O O O O                                 ",
"                                          . . & y V.C.R.z.l.M.l.+.W.E.M.l.-.K.z.X.v - o O O O O O                               ",
"                                        .   & ..%.C.[.^.L.$.I.n.c.I.K.H.H.U.!.H.O.h.g .       @                                 ",
"                                O   X X   > R ! -.I.(.[.c.>.>.L.{.>.{ ] P.0XQ.>.O.@.| - $     O                                 ",
"                                  O         y b.W.W.E.M.L.L.$.F.F.D.G.1.Q.|.].I.H. .% .                                         ",
"                                  o     o . . V.9Xl.-.$.^.^.>.>.;.G..XT.T.`.{.Q./.... . .     +                                 ",
"                                        X = s %.g.X.N.[.M.>.>.J..X.XY.;.;.O.O.v . .   o =                                       ",
"                                        . & l b.C.-.-.<.$.#.Q.F.2.oX.XY.}.rX=.$ . 7 #         +                                 ",
"                                  X     o   8 C.9X=.M t u ] /.P.} '.eX}.dXhX%..         @ 1 @                                   ",
"                                    o X   & l %.h.Q =.0Xn.1.x.U.'.oXeX.XdXgXx d.Z.T   1 O                                       ",
"                                        X & l g.b._ >.rX].1.} ).OX+X XXXdXuX1.].rXc.d . +   O                                   ",
"                                  X X X   X ~ M.9X_ x.yXP.;.} oXXXOX+X+XOXuXeXuXtXrXm.$ +     O                                 ",
"                                    X   X   8 +.h.b <.|.T.Q.G.Y.oX~.OXXX~.T.'.U.`.n. ..     O                                   ",
"                                        o     X . x $.^.{.{._.G.S.T.oXT.Y.S.D.>.>.e . . +   O O                                 ",
"                                O X           o $ & n E.:.( n.J.~.wXT.;.].yXwX#.$ e .   # @                                     ",
"                                  X X         : = . y b X.z.l.L.U.].^.;.L.0X0Xo.$ . .     @ O O                                 ",
"                                        X         = &   l.9Xm.M.I.I.I.x.I.W.E.E *     =     O                                   ",
"                                O @           X . o . o l ~ / l.N.C.N.M Q ! b *   =       O O 1                                 ",
"                                    O           o . o   . & 8 %.j.=.! z X   X           O                                       ",
"                                  O         X .   . : . o o o z R R z X o X X                                                   ",
"                                O           . . & X = z 8 o o / %.k./   X                                                       ",
"                                  O           & 8 & 8 R l o : %.V.7XA.X o         O                                             ",
"                                      X   . . & . d ~ b > X & ; o b.j.  X   o X     O                                           ",
"                                      . .   . - > v Q b *   &   . d.d.o o X                                                     ",
"                                          . & d ..b h v r & i z . - = . . . .                                                   ",
"                                O       . . ; v Q b y r ; ; n i v * $ 7 s 8 +                                                   ",
"                              O O ,     . . o E Q b r $ u b x ' n m h o s W > - .   &         O                                 ",
"                                , , O   o . . i Q E y & p _ ` [ c m * * y R | $ . . . . = + O O                                 ",
"                                O O O     & h Q v v r * u ` ] ) ' c j * e e e g.b.* $       4 O                                 ",
"                                O     . . $ n n h h r r p ( ) ( M j h & % w | 8XgX-.% $ .   + O                                 ",
"                                O   + & e t o.k j r t k ) ) ) ) ( x % t $ g qXiXsXiXV.$ . + O                                   ",
"                                O   # . $ % ] k j r t ' o.( ) )  ._ t t % g 8XpXpXiXR.. . . + .                                 ",
"                                  . $ . * % ] a p w t ' o.( ( _  .j u . $ $ e W.fXX.$ $ -     O                                 ",
"                                  . . e x.n.Q.O.p ; h  .E  . .n ! v y . % % . W =.* .   .                                       ",
"                                . . . i [.0XaX#.r $ f ! ! ! +...~ Y s   . o . . . .                                             ",
"                                . # . i qXqXpX[./.R . 0 q 4 q 1 D 5 # .       o     .       X                                   ",
"                                  - . e !.W.W./.(.T X ^ ^ w.w.Z 3 Z D X     X             X                                     ",
"                                +   . . $ $ .   . O w.,X,X2X>Xr.5.5.U < X X                                                     ",
"                                .     - . . $ + O N a.<X$X<X5X<Xs.6.2 2 <     X                                                 ",
"                                O + . o . .   O 6 C 0.$X<X3X6X%X4Xe.V 2 O O   @     O O O                                       ",
"                                  O     . . + S I F F y.@X;X:X6X4X>Xe.A , O O   + O O O                                         ",
"                                @   + 1 , , J w.r.9.F 3.y.@X=X-X5X4X>Xi.J 3 O O   + .   .   .                                   ",
"                                  O 1 2 N F 8.i.e.e.5.V K 8.$X3X-X;X6X<Xi.2 2 O # . . .   1 O                                   ",
"                                o O O N 4.8.u.0.e.6.H N N H 0.$X-X:X;X5X$X6.Z O       .       .                                 ",
"                                > o < A 0.a.u.9.w.H 2 2 2 2 G 0.#X;X3X<X2X,X2 T Y &     o   O 5                                 ",
"                                o : q P 7.0.0.5.H B , 1 < O 3 G q.#X4X>X,XB.P f.A./ .   +                                       ",
"                                . & q L I I G A 2 , + +   O O 3 V q.r.,Xi.^ A.Y 0 4     X X X @                                 ",
"                                  o : q Z Z A < O .         O O C G 7.B.t.S ,XY   + #                                           ",
"                                X . X 5 A U 6 , O             O O , A L P S 9 1   . .     X X X                                 ",
"                                    X @ 5 5 6 < 1 . .   .       O < O D 9 4 + + O .       X                                     ",
"                                .       O < 9 D + + . . .         O 5 0 q +   +             X                                   ",
"                                      O O 1 1 1 O   .     .   .     o : =     . .         O                                     ",
"                                      O   O @ +   +   . .   .   X     . .     .                                                 ",
"                                              + O   O   . .   . .       .                                                       ",
"                                  O               O             X                                                               ",
"                                O         X           O O     .                             O                                   ",
"                                X O       .         O                                   . O   +                                 ",
"                                                    O   O       O O O         X         .   O .                                 "
};
