/* XPM */
static char *ef9bebac8c744d35e0a941d9b3f39b8cqSRQKutBEw2ASugU[] = {
/* columns rows colors chars-per-pixel */
"64 64 123 2 ",
"   c #372C2A",
".  c #3C2F2E",
"X  c #3B312D",
"o  c #3E3432",
"O  c #44352E",
"+  c #48372F",
"@  c #443634",
"#  c #483632",
"$  c #463934",
"%  c #4B3B35",
"&  c #473738",
"*  c #463B39",
"=  c #4B3D3A",
"-  c #503F37",
";  c #503F3A",
":  c #4C4037",
">  c #4E423B",
",  c #53443D",
"<  c #58473F",
"1  c #54483F",
"2  c #4F3F40",
"3  c #4E4241",
"4  c #534543",
"5  c #584642",
"6  c #564A43",
"7  c #5A4D45",
"8  c #564949",
"9  c #5B4D4A",
"0  c #5B5146",
"q  c #5D524B",
"w  c #5E5351",
"e  c #62544D",
"r  c #63594E",
"t  c #635553",
"y  c #695753",
"u  c #665B52",
"i  c #6A5C54",
"p  c #675B5A",
"a  c #6B5D5A",
"s  c #715F5B",
"d  c #6A6156",
"f  c #6E635B",
"g  c #6F695D",
"h  c #72645D",
"j  c #72695E",
"k  c #6E6261",
"l  c #736562",
"z  c #786760",
"x  c #756B62",
"c  c #796C65",
"v  c #756A69",
"b  c #7B6D6A",
"n  c #777165",
"m  c #7A7266",
"M  c #7D746A",
"N  c #7F786C",
"B  c #7F7372",
"V  c #82746D",
"C  c #827A6D",
"Z  c #837673",
"A  c #857C72",
"S  c #897D75",
"D  c #867A79",
"F  c #8B7D7B",
"G  c #907E7A",
"H  c #878076",
"J  c #8A8175",
"K  c #8D837A",
"L  c #8F897B",
"P  c #92857D",
"I  c #928A7E",
"U  c #8E8281",
"Y  c #938583",
"T  c #958B82",
"R  c #9A8D85",
"E  c #978A8A",
"W  c #9B8E8B",
"Q  c #969082",
"!  c #9A9186",
"~  c #9D938A",
"^  c #9E9492",
"/  c #A1948D",
"(  c #A2998E",
")  c #A39592",
"_  c #A59B92",
"`  c #AA9D95",
"'  c #A69999",
"]  c #AB9D9A",
"[  c #A7A195",
"{  c #AAA196",
"}  c #AEA39B",
"|  c #B2A49D",
" . c #B2AA9E",
".. c #AEA2A2",
"X. c #B4A5A2",
"o. c #B5ABA2",
"O. c #BAACA4",
"+. c #B6A9A8",
"@. c #BBADAA",
"#. c #B7B1A3",
"$. c #BBB2A7",
"%. c #BDB4AA",
"&. c #BEB8AA",
"*. c #BFB3B3",
"=. c #C2B5AD",
"-. c #C2BAAF",
";. c #C3B5B3",
":. c #C6BBB3",
">. c #CABCB5",
",. c #CCBEBA",
"<. c #C6C0B4",
"1. c #CAC3B6",
"2. c #CDC3BA",
"3. c #D1C4BB",
"4. c #D4C6C3",
"5. c #D4CAC2",
"6. c #D8C9C2",
"7. c #D7C9C9",
"8. c #DDCFCC",
"9. c #D6D0C2",
"0. c #DCD4C9",
"q. c #E0D7CE",
"w. c #E8DFD6",
/* pixels */
"K ) Z +.8.X.Z b Z Z D Z Z Z Z F U U E ' ^ +.E D D ^ E U ^ D *.,.E B D D D D U ' ' U +.+.D ' 7.Y E ^ U E ^ D D v v B v B U B B ^ ",
"p 5 4 D E a @ 4 5 6 8 5 5 4 5 6 2 2 w U v B p w 2 8 p p 8 v ' ..2 2 w 2 2 w w 2 w 2 v Z 2 k +.w w p w p v w 3 o X * * * 8 * o 3 ",
"t > 4 % 4 4 = = 5 8 9 9 8 5 6 9 p p p U D ' v 2 w w p p p E ....w 8 8 w p 2 2 v D 9 y v p D ;.k w w w p v p * *   * * 3 3 * * w ",
"a = 5 t Z 5 2 9 9 9 w e w 9 9 w p p w v B ' B 2 8 2 2 2 D D D D k w w w k w 2 U ' 2 U E y k Z 2 2 8 w p w 8 o * o * o * 3 * w H ",
"9 4 % y ) 5 = 4 e e t t 9 9 9 9 v w w v p Z p 9 8 8 2 p E v U E a a p 2 w w 2 B ^ 2 U Y p B Y s p p w w 8 * * * * o o 3 8 3 p ..",
"5 p = 9 E t e 9 p p p t e 9 9 9 t 9 w k p F a 2 w 2 w E B v *.*.F Z k w w 2 w D ;.Z v v 9 l ' 8 w 8 3 2 3 * w o o X X * 3 o w ^ ",
"t 9 9 v ^ p e a y p t 9 8 5 5 8 9 w p Z U ;.W y p 8 v E k v *.7.E l y w w 2 2 B Z b Y E w p X.p p 8 8 3 w 8 U 3 * * o 3 3 * 8 B ",
"t q p 4 t p a s l l h a t t t p l k v W E +.Z 9 w 2 B k p w E +.D v Z k p p p k v y W ) p l ] b 8 w 8 8 8 * ^ * o * o o * o * w ",
"9 t 4 b W V p v a V ) E / ) ) ' O./ =.,.) b w w 2 a V t e 9 t v V k v Z s p y ] +.p c D p 9 a t 8 8 3 w p 8 U 2 o * * o * * o 3 ",
"9 2 5 ) ,.E t y w D X.] ] ] ] X.| ] =.+.' ) V & 9 s p 5 5 = v U y p s V l h l ] / b s i 9 l W t 9 8 * 3 4 3 2   o * o * * * 3 p ",
"9 = 4 / ,./ b B F ..=.| ' ../ ) X.] X.X.+.>./ w v b 9 4 4 & G X.w y k Z b D Z O.;.Y a k t t / t w 8 2 8 8 k k 8 * * o * 3 o 8 D ",
"9 4 4 l Y Z Z G D R G D V Z z D Y V D P W W G V b s 7 5 9 4 G X.2 8 y V V D b / ] Y s t 5 v X.t 4 * * 2 & 2 W @ o o o * 3 o 8 H ",
"4 5 4 w b p s v p k l s e t 2 s Z y h D G b a V i 4 9 5 e 5 b E w w a b Z G c E W c i e 7 a T 9 9 3 4 w 4 4 ) 2 o * & & * o 3 k ",
"5 5 5 k ) s 9 a v t t t t y w p s 5 t V Z h 7 e i 5 y t e 7 y V w 8 y z Z Y V ] +.c a c e 6 c 1 2 * & 9 9 9 t 8 & 3 2 & * * * 3 ",
"9 9 w Z ;.V 9 l i 9 s a y l b s h s l V S V s l h a v s e e S E w 2 5 y h V V @.@./ c p 7 h ) = 4 8 3 9 t p p 3 * 3 2 o 2 o o 3 ",
"4 u k P 7.V 5 p 9 c +.W a e l a v i s s s s y b i c z h p s =.1.Z s y y a z M ;.3.` t t e a } > = 8 4 9 k b +.w & 2 o * 3 * o 8 ",
"e e y h I y y i y P I | e y < V V - < V V G V G S V V G V ~ >.=.Z t h s s V s ) >.F b 4 9 l | 9 = 9 4 4 5 i ' s & & = 2 2 @ 2 v ",
"e t y f S e 7 e < P =.| < y < e V V V G S ` V V P M V P V J { ) a 5 y 5 9 i 7 V D 7 s s e e G 4 2 4 4 = 2 t Z w & 2 & & & & 2 b ",
"y y y S ` V e i < S I V e V e e < V V G P | V V Z c A ( R K ! K V h c y y c s G ` V e 7 5 9 y 7 7 = ; @ ; 5 w ; & 2 = @ 2 & 2 s ",
"e , 7 / =.G 7 e V y V < < V < V V < V V G ` V V A c x A M S  .$./ Z D z s b Z X.;.V s s 5 h _ 5 5 @ ; 4 2 t b 5 & 2 = & 2 & & 2 ",
"y y e P | V e y y y P y e e < y S e y V G | G V b A K ! ! [ 2.9./ V V z h i V =./ G e 9 7 y ` 9 4 # , p t v ] i @ & & & 2 & @ 2 ",
"< 7 - e V e 5 e e V O.V < y V V V V V V V | G V x b c x x H &.2.R c z V c a c X.3.G s h 6 9 X.7 5 = 1 a y h ..t @ 2 & @ & & 2 2 ",
"< < < e V y y h < e O.V < V V y V V G P V ` G V f x n B N B ~ [ Z V v c c h z P R V 9 e r u j < 9 1 5 9 e 9 c ; & & @ & 2 @ 2 y ",
"0 , < V | h e y V V 3.I r y y V V < G | I | V V M n x N N M U ^ S G V c V V V V z j h i < h e h e 5 5 > 9 < ; = & 2 & & & O 2 k ",
"7 ; < h =.V < i y y I V y V V V S V V G I 3.{ V V h j j N [ 9.5.| | / V V c j { O.j h y 7 K | R e ; e 7 ; , V ; & # ; = = & = a ",
"< 7 y j ` V 7 y y V I V < V V y G V V V J | / V V d m K Q ^ 5.q.` S / ` S c V | O.C y i < / ` C e s 0 , , , R & # & = & = ; & 9 ",
", y y s P s 7 y e G =.` y V V V G i V V h J V d c g V K U H #.<.R A I ( / V V =.-.L 0 r , J ! V , 0 - ; 4 7 T 5 # # ; @ = 2 @ = ",
"< y y j P V e h V P =.| y V y V V e V V S  .I V x C K C n N ( ^ I P A A / R j (  .m 0 < 0 u I m e < i a y < 9 % & # ; & = = # 4 ",
"7 y s ` >./ s h e G O.` y e e y V 0 V J I 6.{ V M Y Q N N U ..[ I C S I L _ J C A r e e i c ( V s h I / G 0 - - > # = % = # ; v ",
"0 e d | 6./ h s y V I G < e < V V r V I I { C d n A N N H Q %.<.P S A I P ( J / I j u i e I =.A i R ` =.W e e - , # = = = & 7 D ",
"7 e y V / V e y s e V e y V e < V i C I J I S V x x x n H H o.5.A R A A I [ V { #.m j d e ( =.S G =.| / V 7 1 O = # % = ; % 4 c ",
"0 y y y h e < 7 < y / V e e < V V r V C P | L d x m n k n n [ <.C J P I A { K J #.< C C c J | V _ O.| V e 7 O 1 , # % # % % & 9 ",
"e s i P I V < < < r 3.L 0 r r r d d j J m #.L j N m N g m n L L A A A H ) ! A _ 1.x g g f d H [ ` J j r < < < O , O ; ; % ; % # ",
"e < < I #.J < 0 r <  . .J C < r m j J ( L L m j m N N N L L &.&.~ K L ~ [ ! Z H A x f w g A o.-.~ h 7 y r < V e % O - % % = # 5 ",
"e < < I &.V < < < z I I d C j J m j L { L C j C J N J N N L #.1.~ A ~  .^ ! ! [ P n g r q R 0.^ j e < 0 i h O.s O % , % ; = # y ",
"e i < V J i < < 0 < J z r d d j d r m C L L C C N m m g N L &.9. .R ~ ^ L H ! *.$.C g n C 1.w.D r 7 7 e s z _ 7 O : % % ; # # z ",
"< r - < r < < e r 0 L z d d r 0 r r r d m L C j N m j j m N [ #.[ ! A M K H L *.<.L d j  .9.I m i < < d i r e - % % ; # ; ; # s ",
"i r < C P V < e < V #.V r d m r d r d m C L C j N m N m n d L L M B n N T T T :.&.J g g J I m d e 0 < 0 < e 7 - ; % # # 2 ; # 5 ",
"y r d ` >.J e < i 0 I J r d r j j d j J C [ L m m j N N J N [ #.n N H H K K L [ { n d N r L I J < 0 0 , , i C < % # ; % ; ; % ; ",
"< < < P | C < 0 < d 1.I < j r j m j j J L &.[ g m m N m N N  .1.A x m A A L L L L J d m N  .#.J 7 , , < 1 1 I , # O ; ; ; ; % % ",
"< e < r C r - < r < C j < d r j J d j Q L Q J z m j J J J m #.9.x n N Z L I I { ( J d d n I 1.J , < : 7 7 7 I e # ; % % ; % ; s ",
"< < < r r < e 0 r 0 j d 0 r r m J j z J J Q C m j j J J J j I [ m n H K L L I I ( J n g 0 J I m 0 1 , , e < < + % - # % ; # e G ",
"< - < r C < < < 0 0 r r < 0 d j m m j z C #.Q j m J J J m g L L N g m C J J J J I L m d r d J J r < , < h h z 0 # % % % ; # y Y ",
"- - + r | d + r < < < < < 0 d r z j m C Q &.( j m m J m N J  .#.N r d g d n N m L n m j 0 J I L d e , e y j | e # ; ; % ; ; 2 s ",
"- < - < I r + < < < < < 0 < d r z r C { {  .L m m J J m J L 1.9.C r d d d m J J H J j r d L I I h r , < , i | e # < ; # ; ; # ; ",
"< - - - i - < - - < r 0 0 r r < d d m Q  .1.( z m m J j m J #.&.m 0 r d d m m H J m j d 0 J I g h i e 1 < e h 7 ; 2 ; # ; ; ; ; ",
": - - 0 0 - < - < < d r 0 r r < d d z m Q 1.{ r j n m m m n L L j 0 r d d j j H H H r 0 1 r d 0 h j d , , - < O - - # ; ; # ; s ",
"- : + C I V - < r r m d r d < r z r d C m L m d d d g j J m L L n d d d j j j J J H n d 0 0 d r < j u e 7 9 P - % - - 5 5 + 5 S ",
"+ 1 + J  .C : 0 : m  .! r 7 6 r d d g j m L m r g r d J L L #.1.J g j j d g d J J N m d 1 J ( n < j j h 7 r I - : : + - < + < V ",
"- < : m I n , 1 : K P ( r 0 0 1 r d m J L  .J r d d g m J m  .&.J d d n j d d J N J N r 0 L #.J 0 j V S j V I y + < - - < - < i ",
"1 1 : r r 1 1 r q j #.J j 7 r j n j J ( ( #.J r r j J n g r I  .g 0 r j j j g m J J C r 1 N I g < y j P V V V e - < : + - - + - ",
"0 0 1 0 m 0 1 0 0 u f j d 0 i r C d m ! J I m < r j n d r 1 J n r 0 d d j J J n J N m d 0 0 g 1 < < V P r s V < + < : + - - + - ",
"n j d j  .d < r q f m C j r h f H d n J H _ Q x J J g r r 0 J N r r r r d J N n N m j g d r N 1 < r V S r V | h + - - - - - - y ",
"J m j g &.m r d i M 2._ A d g K C m N J Q <.o.H L L J r d j #.<.m 0 0 0 r g n J J N N d r n { d 0 i S S i V >.h + - + - < - 7 V ",
"1 r d m _ j e r q ~ ~ $.x u f i n m H L ! #.! n J J d r r d #.1.n 0 1 0 r d g J J J N d 0 g &.g 0 i C S h V S 7 - + - - - - e G ",
": 0 1 g j 0 e d f I ;.} M f d n m n H ^ ! Q n N g n d 0 r r I [ d 0 0 0 0 g j n N g n d 0 w #.n < i V J V j < - + : - + + + < S ",
": > 3 d H x q x M j Y H M j h x n g H ^ [ Q N N n r g r r g N N 0 1 1 r d r r N m N x q 6 0 w q 7 V P V h e 1 = < + % % - - - - ",
"> > > K o.N 0 u u f M x M x f n n v N U Q H N n g d g d d g ^ Q r 1 : r d r g N H n g u : g Q u , x V c u 7 , % - - % - ; - + - ",
"> > : K } x > 0 q k g a M Z p x g g n H H N v g g p 0 w r r #.&.g 1 1 r r d g N k H k > 0 U ( n , f c t q 9 1 % + - + - 5 # # y ",
"* 6 o w x 8 6 4 f M f k b Z g l g g N L Q H v g g d 0 0 0 d [ &.d 1 1 0 0 r n n N n n d 0 L  .g 7 h f 9 7 7 , # + < + # ; # 5 G ",
": > o > 8 4 7 0 x x p f p M v f g n H ^ [ L N n g r 0 3 1 0 g N 0 * : 1 1 0 d g x d x x 6 d H 6 p f t 7 7 7 ; # % ; # # ; # 9 / ",
": o > g B f 8 w u w q w 7 d x p g g H [ [ L N n g 8 0 * 1 * * 0 > : : > : 1 r g d n f w 0 0 u q z h e 9 e e , & # ; # # ; # 5 G ",
": X d T _ K p b q p w q w q k g p g H E Q H n g g r 0 3 0 : r N : : : : 1 1 0 d N f x g 6 x ~ M c p 7 9 p 9 ; % ; # # ; ; # ; y ",
": o A ' } ^ M ! d Z x u x 7 u l p p n N H N g d r d 3 3 1 X n Q o : : : : : : 0 w x 0 * 0 N { ) g 7 = 5 t 7 & # = O O ; ; ; ; ; "
};
